<svg xmlns="http://www.w3.org/2000/svg" width="30.724" height="31.034" viewBox="0 0 30.724 31.034"><g transform="translate(-43.293 -333.975)"><g transform="translate(44.31 335)"><g transform="translate(0 0)"><path d="M5.642,1.02H25.088a4.877,4.877,0,0,1,.9.08,5.291,5.291,0,0,1,.867.231,5.416,5.416,0,0,1,.794.374,4.724,4.724,0,0,1,.7.509,4.389,4.389,0,0,1,.578.62,3.816,3.816,0,0,1,.424.7,3.357,3.357,0,0,1,.262.764,3.366,3.366,0,0,1,.09.8V25.947a3.366,3.366,0,0,1-.09.8,3.862,3.862,0,0,1-.262.764,4.064,4.064,0,0,1-.424.7,4.389,4.389,0,0,1-.578.62,4.7,4.7,0,0,1-1.5.883,4.6,4.6,0,0,1-.867.231,4.877,4.877,0,0,1-.9.08H5.642a4.877,4.877,0,0,1-.9-.08,5.291,5.291,0,0,1-.867-.231,5.012,5.012,0,0,1-.794-.374,4.724,4.724,0,0,1-.7-.509,4.389,4.389,0,0,1-.578-.62,3.816,3.816,0,0,1-.424-.7,3.707,3.707,0,0,1-.352-1.559V5.092a3.366,3.366,0,0,1,.09-.8,3.862,3.862,0,0,1,.262-.764,4.074,4.074,0,0,1,1-1.32,4.7,4.7,0,0,1,1.5-.883A4.6,4.6,0,0,1,4.739,1.1a4.877,4.877,0,0,1,.9-.08Z" transform="translate(-1.02 -1.02)" fill="#ebc74e"/><path d="M4.488,1.02H26.246a3.889,3.889,0,0,1,.677.056,3.513,3.513,0,0,1,.65.175,3.961,3.961,0,0,1,.6.278,3.368,3.368,0,0,1,.524.382,3.138,3.138,0,0,1,.433.461,2.678,2.678,0,0,1,.316.525,2.568,2.568,0,0,1,.2.573,2.681,2.681,0,0,1,.063.6V26.958a2.681,2.681,0,0,1-.063.6,2.568,2.568,0,0,1-.2.573,3.2,3.2,0,0,1-.316.525,3.138,3.138,0,0,1-.433.461,3.368,3.368,0,0,1-.524.382,3.309,3.309,0,0,1-.6.278,3.513,3.513,0,0,1-.65.175,3.889,3.889,0,0,1-.677.056H4.488a3.889,3.889,0,0,1-.677-.056,3.512,3.512,0,0,1-.65-.175,3.96,3.96,0,0,1-.6-.278,3.367,3.367,0,0,1-.524-.382,3.138,3.138,0,0,1-.433-.461,2.678,2.678,0,0,1-.316-.525,2.568,2.568,0,0,1-.2-.573,2.68,2.68,0,0,1-.063-.6V4.066a2.68,2.68,0,0,1,.063-.6,2.568,2.568,0,0,1,.2-.573,3.2,3.2,0,0,1,.316-.525,3.138,3.138,0,0,1,.433-.461,3.368,3.368,0,0,1,.524-.382,3.31,3.31,0,0,1,.6-.278,3.513,3.513,0,0,1,.65-.175,3.889,3.889,0,0,1,.677-.056Z" transform="translate(-1.022 -1.02)" fill="#fff" stroke="#333" stroke-linecap="round" stroke-width="2.05"/><path d="M16.221,9.51v.859a4.886,4.886,0,0,1,1.456.35,2.841,2.841,0,0,1,1.058.8,3.285,3.285,0,0,1,.549.835,1.958,1.958,0,0,1,.191.787.938.938,0,0,1-.286.684.961.961,0,0,1-.7.286.988.988,0,0,1-1.01-.843,1.8,1.8,0,0,0-1.265-1.32v3.309c.66.183,1.177.342,1.567.493a3.272,3.272,0,0,1,1.042.644,2.977,2.977,0,0,1,.756,1.042,3.327,3.327,0,0,1,.262,1.328,3.565,3.565,0,0,1-.422,1.694,3.4,3.4,0,0,1-1.249,1.289,4.459,4.459,0,0,1-1.965.6V24.32a2.028,2.028,0,0,1-.087.684.385.385,0,0,1-.4.215.426.426,0,0,1-.4-.175.98.98,0,0,1-.111-.541V22.356a5.048,5.048,0,0,1-1.623-.437,3.97,3.97,0,0,1-1.161-.827,3.383,3.383,0,0,1-.684-1.034,2.681,2.681,0,0,1-.223-1.05.941.941,0,0,1,.294-.684.978.978,0,0,1,.74-.3,1.059,1.059,0,0,1,.6.167.857.857,0,0,1,.342.469,10.357,10.357,0,0,0,.374.994,1.86,1.86,0,0,0,.477.628,2.2,2.2,0,0,0,.851.437v-3.7a10.243,10.243,0,0,1-1.782-.652A2.951,2.951,0,0,1,12.26,15.34a3.061,3.061,0,0,1-.445-1.718,3.046,3.046,0,0,1,.867-2.243,3.9,3.9,0,0,1,2.513-1.018V9.518q0-.668.5-.668c.342,0,.509.215.509.652Zm-1.01,5.448V11.912a2.834,2.834,0,0,0-1.042.525,1.248,1.248,0,0,0-.374.986,1.225,1.225,0,0,0,.35.947,3.193,3.193,0,0,0,1.066.581Zm1.01,2.362V20.8a2.169,2.169,0,0,0,1.241-.644,1.627,1.627,0,0,0,.437-1.129,1.355,1.355,0,0,0-.422-1.066,3.443,3.443,0,0,0-1.249-.636Z" transform="translate(-1.488 -2.622)" fill="#333"/><path d="M16.477,9.428v.557a5.109,5.109,0,0,1,.525.1,4.291,4.291,0,0,1,.724.239,3.032,3.032,0,0,1,.636.374,3.361,3.361,0,0,1,.549.517,4.168,4.168,0,0,1,.342.445,3.086,3.086,0,0,1,.43.939,1.858,1.858,0,0,1,.056.453,1.268,1.268,0,0,1-.39.931,1.426,1.426,0,0,1-.43.294,1.378,1.378,0,0,1-.509.1,1.3,1.3,0,0,1-.859-.286,1.525,1.525,0,0,1-.477-.8h0a1.43,1.43,0,0,0-.366-.676,1.887,1.887,0,0,0-.231-.2v2.521c.239.072.461.135.644.191.27.087.509.167.708.239a3.649,3.649,0,0,1,.612.3,4.359,4.359,0,0,1,.541.406,3.276,3.276,0,0,1,.843,1.161,3.182,3.182,0,0,1,.223.708,4.01,4.01,0,0,1,.072.764,3.842,3.842,0,0,1-.469,1.853,3.583,3.583,0,0,1-.581.8,4.2,4.2,0,0,1-.8.628,4.528,4.528,0,0,1-.978.437,5.339,5.339,0,0,1-.819.175V24.27a3.906,3.906,0,0,1-.024.453,1.114,1.114,0,0,1-.1.366.7.7,0,0,1-.716.422.922.922,0,0,1-.374-.072.746.746,0,0,1-.31-.255.9.9,0,0,1-.135-.334,1.9,1.9,0,0,1-.04-.39V22.608c-.215-.032-.422-.08-.62-.127a4.485,4.485,0,0,1-.811-.3,4.084,4.084,0,0,1-.684-.406,4.308,4.308,0,0,1-.573-.5,4.4,4.4,0,0,1-.437-.549,3.159,3.159,0,0,1-.31-.581,3.045,3.045,0,0,1-.247-1.185,1.2,1.2,0,0,1,.1-.5,1.48,1.48,0,0,1,.294-.43,1.267,1.267,0,0,1,.445-.3,1.327,1.327,0,0,1,.533-.1,1.45,1.45,0,0,1,.8.223,1.258,1.258,0,0,1,.294.286,1.215,1.215,0,0,1,.183.366c.072.223.135.414.191.557a2.858,2.858,0,0,0,.167.4,1.285,1.285,0,0,0,.159.262,1.42,1.42,0,0,0,.239.255,1.834,1.834,0,0,0,.286.2V17.215a10.158,10.158,0,0,1-1.591-.6,3.435,3.435,0,0,1-.716-.485,3.741,3.741,0,0,1-.573-.652,2.96,2.96,0,0,1-.382-.867,4.26,4.26,0,0,1-.119-1.042,3.388,3.388,0,0,1,.97-2.482,3.423,3.423,0,0,1,1.177-.764A5.055,5.055,0,0,1,14.8,10V9.46c0-.668.278-1.01.843-1.01s.851.334.851.994Zm-.676.859V9.428q0-.31-.167-.31c-.111,0-.159.111-.159.326V10.6l-.31.024a4.642,4.642,0,0,0-1.352.3,2.82,2.82,0,0,0-.947.612,2.71,2.71,0,0,0-.772,2,3.57,3.57,0,0,0,.1.867,2.157,2.157,0,0,0,.286.66,2.665,2.665,0,0,0,1.026.915,8.955,8.955,0,0,0,1.718.628l.247.072v4.4l-.43-.119a3.065,3.065,0,0,1-.541-.207,2.3,2.3,0,0,1-.445-.3,2.7,2.7,0,0,1-.326-.35,2.028,2.028,0,0,1-.239-.4c-.056-.119-.119-.27-.183-.445s-.135-.382-.207-.589h0a.6.6,0,0,0-.087-.175.426.426,0,0,0-.119-.119.7.7,0,0,0-.175-.08,1.082,1.082,0,0,0-.239-.032.756.756,0,0,0-.278.048.789.789,0,0,0-.223.151.774.774,0,0,0-.159.223.571.571,0,0,0-.048.231,2.326,2.326,0,0,0,.2.923,2.458,2.458,0,0,0,.255.469,3.873,3.873,0,0,0,.366.461,2.959,2.959,0,0,0,.469.414,3.26,3.26,0,0,0,.589.342,4.162,4.162,0,0,0,.692.255,5.16,5.16,0,0,0,.819.151l.3.032v2.45a1.03,1.03,0,0,0,.024.247.214.214,0,0,0,.04.1l.008.008a.33.33,0,0,0,.111.016c.056,0,.087,0,.087-.008a1.65,1.65,0,0,0,.048-.191,2.356,2.356,0,0,0,.016-.358V21.94l.31-.024a4.53,4.53,0,0,0,.986-.183,3.533,3.533,0,0,0,.827-.366,3.582,3.582,0,0,0,.66-.517,2.91,2.91,0,0,0,.469-.644,3.236,3.236,0,0,0,.318-2.163,2.594,2.594,0,0,0-.175-.565,2.821,2.821,0,0,0-.286-.5,2.172,2.172,0,0,0-.39-.422v-.008a2.9,2.9,0,0,0-.437-.334,3.171,3.171,0,0,0-.493-.247c-.191-.072-.414-.151-.668-.231-.27-.087-.565-.167-.875-.255l-.247-.072V11.377l.445.143a2.224,2.224,0,0,1,.954.581,2.172,2.172,0,0,1,.533.978.88.88,0,0,0,.255.461.646.646,0,0,0,.43.135.632.632,0,0,0,.255-.048.692.692,0,0,0,.207-.143.615.615,0,0,0,.191-.445,1.305,1.305,0,0,0-.04-.294,1.889,1.889,0,0,0-.127-.35,2.465,2.465,0,0,0-.207-.374,4.234,4.234,0,0,0-.286-.374l-.008-.008a2.676,2.676,0,0,0-.437-.414,2.216,2.216,0,0,0-.5-.286,3.453,3.453,0,0,0-.612-.2,4.906,4.906,0,0,0-.748-.119l-.3-.032v-.3Zm-1.01,4.08V12.316l-.1.048a1.693,1.693,0,0,0-.374.247.709.709,0,0,0-.183.27,1.291,1.291,0,0,0-.072.453,1.411,1.411,0,0,0,.064.437.611.611,0,0,0,.175.262,2.168,2.168,0,0,0,.374.262l.119.064Zm.676-2.529V15.37l-.453-.167a5.384,5.384,0,0,1-.668-.294,2.6,2.6,0,0,1-.509-.358,1.3,1.3,0,0,1-.35-.533,1.961,1.961,0,0,1-.111-.668,1.855,1.855,0,0,1,.119-.692,1.3,1.3,0,0,1,.374-.541,2.536,2.536,0,0,1,.517-.342,3.847,3.847,0,0,1,.652-.255l.437-.127v.453Zm1.01,5.886v2.553q.119-.048.215-.1a1.612,1.612,0,0,0,.43-.326,1.327,1.327,0,0,0,.262-.422,1.35,1.35,0,0,0,.087-.485,1.266,1.266,0,0,0-.08-.485.79.79,0,0,0-.231-.326,2.245,2.245,0,0,0-.453-.3C16.636,17.8,16.556,17.764,16.477,17.724Zm-.676,3V16.778l.437.143a6.117,6.117,0,0,1,.779.31,2.682,2.682,0,0,1,.6.4,1.48,1.48,0,0,1,.406.581,2.047,2.047,0,0,1,0,1.464,2.074,2.074,0,0,1-.39.628,2.225,2.225,0,0,1-.628.477,2.983,2.983,0,0,1-.8.27l-.406.08v-.414Z" transform="translate(-1.4 -2.54)" fill="#333"/><path d="M16.219,9.51v.859a4.886,4.886,0,0,1,1.456.35,2.841,2.841,0,0,1,1.058.8,3.285,3.285,0,0,1,.549.835,1.958,1.958,0,0,1,.191.787.938.938,0,0,1-.286.684.961.961,0,0,1-.7.286.988.988,0,0,1-1.01-.843,1.8,1.8,0,0,0-1.265-1.32v3.309c.66.183,1.177.342,1.567.493a3.272,3.272,0,0,1,1.042.644,2.977,2.977,0,0,1,.756,1.042,3.327,3.327,0,0,1,.262,1.328,3.565,3.565,0,0,1-.422,1.694,3.4,3.4,0,0,1-1.249,1.289,4.459,4.459,0,0,1-1.965.6V24.32a2.028,2.028,0,0,1-.087.684.392.392,0,0,1-.4.215.426.426,0,0,1-.4-.175A.973.973,0,0,1,15.2,24.5V22.356a5.048,5.048,0,0,1-1.623-.437,3.97,3.97,0,0,1-1.161-.827,3.383,3.383,0,0,1-.684-1.034,2.681,2.681,0,0,1-.223-1.05.941.941,0,0,1,.294-.684.978.978,0,0,1,.74-.3,1.059,1.059,0,0,1,.6.167.857.857,0,0,1,.342.469,10.357,10.357,0,0,0,.374.994,1.86,1.86,0,0,0,.477.628,2.2,2.2,0,0,0,.851.437v-3.7a10.243,10.243,0,0,1-1.782-.652A2.951,2.951,0,0,1,12.25,15.34a3.061,3.061,0,0,1-.445-1.718,3.046,3.046,0,0,1,.867-2.243,3.9,3.9,0,0,1,2.513-1.018V9.518q0-.668.5-.668c.342,0,.509.215.509.652Zm-1.01,5.448V11.912a2.834,2.834,0,0,0-1.042.525,1.248,1.248,0,0,0-.374.986,1.225,1.225,0,0,0,.35.947,3.194,3.194,0,0,0,1.066.581Zm1.01,2.362V20.8a2.169,2.169,0,0,0,1.241-.644,1.627,1.627,0,0,0,.437-1.129,1.355,1.355,0,0,0-.422-1.066,3.443,3.443,0,0,0-1.249-.636Z" transform="translate(-1.487 -2.622)" fill="#333"/></g></g><rect width="29" height="29" transform="translate(44 335)" fill="none" opacity="0.3"/></g></svg>