<svg xmlns="http://www.w3.org/2000/svg" width="29" height="29" viewBox="0 0 29 29"><g transform="translate(-44 -530)"><g transform="translate(0.595 1.216)"><path d="M21.6,14.07l2.658,2.067a.625.625,0,0,1,.177.827L21.9,21.335a.517.517,0,0,1-.768.236L18,20.331a11.916,11.916,0,0,1-2.126,1.24L15.4,24.878a.564.564,0,0,1-.65.532H9.734a.608.608,0,0,1-.65-.532l-.473-3.308a9.688,9.688,0,0,1-2.126-1.24l-3.13,1.24a.575.575,0,0,1-.768-.236L.048,16.963a.625.625,0,0,1,.177-.827l2.658-2.067q-.059-.709-.059-1.24t.059-1.24L.225,9.522a.625.625,0,0,1-.177-.827L2.587,4.324a.533.533,0,0,1,.768-.236l3.13,1.24a11.917,11.917,0,0,1,2.126-1.24L9.084.781a.608.608,0,0,1,.65-.532h5.02a.564.564,0,0,1,.65.532l.473,3.308A9.688,9.688,0,0,1,18,5.328l3.13-1.24a.575.575,0,0,1,.768.236L24.44,8.695a.625.625,0,0,1-.177.827L21.6,11.589a7.654,7.654,0,0,1,.118,1.24A7.654,7.654,0,0,1,21.6,14.07Zm-9.361,3.189a4.232,4.232,0,0,0,3.1-1.3,4.267,4.267,0,0,0,1.3-3.13,4.267,4.267,0,0,0-1.3-3.13,4.35,4.35,0,0,0-6.2,0,4.267,4.267,0,0,0-1.3,3.13,4.267,4.267,0,0,0,1.3,3.13A4.232,4.232,0,0,0,12.244,17.259Z" transform="translate(45.661 530.455)" fill="#fff"/><path d="M14.673,25.329a.564.564,0,0,0,.65-.532L15.8,21.49a11.916,11.916,0,0,0,2.126-1.24l3.13,1.24a.517.517,0,0,0,.768-.236l2.539-4.371a.625.625,0,0,0-.177-.827l-2.658-2.067a7.654,7.654,0,0,0,.118-1.24,7.654,7.654,0,0,0-.118-1.24l2.658-2.067a.625.625,0,0,0,.177-.827L21.82,4.244a.575.575,0,0,0-.768-.236l-3.13,1.24A9.688,9.688,0,0,0,15.8,4.008L15.323.7a.564.564,0,0,0-.65-.532H9.653A.608.608,0,0,0,9,.7L8.531,4.008A11.917,11.917,0,0,0,6.4,5.248l-3.13-1.24a.533.533,0,0,0-.768.236L-.033,8.614a.625.625,0,0,0,.177.827L2.8,11.508q-.059.709-.059,1.24t.059,1.24L.144,16.056a.625.625,0,0,0-.177.827l2.539,4.371a.575.575,0,0,0,.768.236L6.4,20.25a9.687,9.687,0,0,0,2.126,1.24L9,24.8a.608.608,0,0,0,.65.532h5.02M12.164,8.32a4.232,4.232,0,0,1,3.1,1.3,4.267,4.267,0,0,1,1.3,3.13,4.267,4.267,0,0,1-1.3,3.13,4.35,4.35,0,0,1-6.2,0,4.267,4.267,0,0,1-1.3-3.13,4.267,4.267,0,0,1,1.3-3.13,4.232,4.232,0,0,1,3.1-1.3m2.51,18.929H9.653A2.514,2.514,0,0,1,7.13,25.215l-.016-.072-.339-2.37q-.313-.17-.617-.36l-2.227.882-.051.017a2.845,2.845,0,0,1-.9.152A2.446,2.446,0,0,1,.845,22.216l-2.568-4.421-.027-.054A2.541,2.541,0,0,1-1.105,14.6l.071-.058L.829,13.092q0-.179,0-.344t0-.343L-1.105,10.9A2.541,2.541,0,0,1-1.75,7.757l.027-.054,2.6-4.476a2.46,2.46,0,0,1,2.1-1.217,2.539,2.539,0,0,1,1.06.237l2.136.846q.3-.185.6-.35L7.114.355,7.13.283A2.514,2.514,0,0,1,9.653-1.751h5.02a2.589,2.589,0,0,1,1.673.567,2.489,2.489,0,0,1,.88,1.634l.325,2.276q.313.17.617.36L20.395,2.2l.051-.017a2.845,2.845,0,0,1,.9-.152,2.446,2.446,0,0,1,2.137,1.248L26.05,7.7l.027.054a2.541,2.541,0,0,1-.645,3.142l-.071.058-1.809,1.407q.01.2.01.386t-.01.386l1.88,1.465a2.541,2.541,0,0,1,.645,3.142l-.027.054L23.5,22.181a2.387,2.387,0,0,1-2.127,1.308,2.687,2.687,0,0,1-1.058-.225l-2.165-.858q-.3.185-.6.35l-.328,2.292a2.487,2.487,0,0,1-.88,1.634A2.589,2.589,0,0,1,14.673,27.249Zm-2.51-17.01a2.3,2.3,0,0,0-1.743.737,2.5,2.5,0,0,0,0,3.546,2.431,2.431,0,0,0,3.487,0,2.5,2.5,0,0,0,0-3.546A2.3,2.3,0,0,0,12.164,10.239Z" transform="translate(45.741 530.535)" fill="#333"/></g><rect width="29" height="29" transform="translate(44 530)" fill="none" opacity="0.3"/></g></svg>