<svg xmlns="http://www.w3.org/2000/svg" width="29" height="29" viewBox="0 0 29 29"><g transform="translate(-44 -133)"><g transform="translate(44 139)"><path d="M28.814,15.1H18.185l.744-3.826c1.568,0,2.445-2.46,2.445-4.039S19.753,3.3,18.185,3.3L18.929,0H45.395V15.1Z" transform="translate(-17.477 1.01)" fill="#fff"/><path d="M26.913,15.559V2.077H2.077V4.256a4.957,4.957,0,0,1,2.841,4.48,4.946,4.946,0,0,1-2.841,4.48v2.332H26.913ZM29,17.646H0V11.608A2.853,2.853,0,0,0,2.841,8.747,2.853,2.853,0,0,0,0,5.886V0H29Z" transform="translate(0 0)" fill="#333"/><path d="M16.55,1.678a1,1,0,0,1,2,0V3.633a1,1,0,0,1-2,0Z" transform="translate(-3.106 0.012)" fill="#333"/><path d="M16.55,13.878a1,1,0,1,1,2,0v2.23a1,1,0,0,1-2,0v-2.23Z" transform="translate(-3.106 0.235)" fill="#333"/><path d="M8.628,7.446a1,1,0,1,1,0-2h3.788a1,1,0,1,1,0,2Z" transform="translate(3.691 0.1)" fill="#333"/><path d="M8.628,11.3a1,1,0,1,1,0-2h3.788a1,1,0,1,1,0,2Z" transform="translate(3.691 0.17)" fill="#333"/><path d="M16.55,7.028a1,1,0,0,1,2,0V9.869a1,1,0,0,1-2,0V7.028Z" transform="translate(-3.106 0.11)" fill="#333"/></g><rect width="29" height="29" transform="translate(44 133)" fill="none" opacity="0.3"/></g></svg>