<svg xmlns="http://www.w3.org/2000/svg" width="29" height="29" viewBox="0 0 29 29"><g transform="translate(-44 -399)"><g transform="translate(47.077 399)"><g transform="translate(0 0)"><path d="M10.764,1.65H25.32a1.745,1.745,0,0,1,1.744,1.744V23.27a1.745,1.745,0,0,1-1.744,1.744H10.764A1.745,1.745,0,0,1,9.02,23.27V3.394A1.745,1.745,0,0,1,10.764,1.65Z" transform="translate(-4.961 -0.911)" fill="#fff"/><path d="M24.413,23.374a1,1,0,0,0,1-1V2.5a1,1,0,0,0-1-1H9.857a1,1,0,0,0-1,1V22.374a1,1,0,0,0,1,1Zm0,1.487H9.857A2.486,2.486,0,0,1,7.37,22.374V2.5A2.486,2.486,0,0,1,9.857.01H24.413A2.486,2.486,0,0,1,26.9,2.5V22.374A2.486,2.486,0,0,1,24.413,24.861Z" transform="translate(-4.054 -0.01)" fill="#333"/><path d="M3.394,10.86H17.95A1.745,1.745,0,0,1,19.693,12.6V32.48a1.745,1.745,0,0,1-1.744,1.744H3.394A1.745,1.745,0,0,1,1.65,32.48V12.6A1.745,1.745,0,0,1,3.394,10.86Z" transform="translate(-0.911 -5.972)" fill="#fff"/><path d="M17.053,32.584a1,1,0,0,0,1-1V11.707a1,1,0,0,0-1-1H2.5a1,1,0,0,0-1,1V31.584a1,1,0,0,0,1,1Zm0,1.487H2.5A2.486,2.486,0,0,1,.01,31.584V11.707A2.486,2.486,0,0,1,2.5,9.22H17.053a2.486,2.486,0,0,1,2.487,2.487V31.584A2.486,2.486,0,0,1,17.053,34.071Z" transform="translate(-0.01 -5.071)" fill="#333"/><path d="M7.36,33.72H20.114v1.189H7.36Z" transform="translate(-4.049 -18.533)" fill="#333"/><path d="M7.36,39.25H20.114v1.189H7.36Z" transform="translate(-4.049 -21.572)" fill="#333"/><path d="M7.36,44.77H20.114v1.189H7.36Z" transform="translate(-4.049 -24.605)" fill="#333"/><path d="M7.36,50.29h7.3v1.189H7.36Z" transform="translate(-4.049 -27.638)" fill="#333"/><path d="M7.53,21.919V18.676a.494.494,0,0,1,.144-.351.479.479,0,0,1,.351-.144H19.563a.494.494,0,0,1,.351.144.479.479,0,0,1,.144.351v3.244a.494.494,0,0,1-.144.351.479.479,0,0,1-.351.144H8.026a.494.494,0,0,1-.351-.144.479.479,0,0,1-.144-.351Z" transform="translate(-4.142 -9.994)" fill="#ebc74e"/><path d="M6.21,21.563V17.576a.635.635,0,0,1,.721-.716H19.212a.689.689,0,0,1,.514.207.7.7,0,0,1,.207.514v3.987a.638.638,0,0,1-.721.721H6.931a.638.638,0,0,1-.721-.721ZM7.4,18.049v3.046h11.34V18.049Z" transform="translate(-3.417 -9.269)" fill="#333"/></g></g><rect width="29" height="29" transform="translate(44 399)" fill="none" opacity="0.3"/></g></svg>