<svg xmlns="http://www.w3.org/2000/svg" width="29" height="29" viewBox="0 0 29 29"><g transform="translate(-44 -464)"><g transform="translate(44 465.937)"><g transform="translate(0 0)"><path d="M14.519,0A40.382,40.382,0,0,1,24.568,1.125c2.493.671,4.122,1.635,4.4,2.758a.194.194,0,0,1,.022.076s0,.014,0,.033a1.467,1.467,0,0,1,.021.243A1.51,1.51,0,0,1,29,4.463c0,.55,0,1.359,0,1.387,0,1.274-1.684,2.369-4.433,3.11a38.549,38.549,0,0,1-8.69,1.108v9.09c0,.277,0,.35,0,.428,0,.2,0,.415,0,.638,0,.041,0,.082,0,.122a5.233,5.233,0,0,1,2.021.772,2.9,2.9,0,0,1,1.374,1.7,1.252,1.252,0,0,1,.027.27,1.5,1.5,0,0,1-.869,1.264,5.507,5.507,0,0,1-1.645.572,10.672,10.672,0,0,1-2.155.2,9.839,9.839,0,0,1-3.3-.679,3.085,3.085,0,0,1-.9-.562,1.2,1.2,0,0,1-.324-1.428A3.338,3.338,0,0,1,11.45,21.08a5.56,5.56,0,0,1,1.865-.741c0-.079,0-.162,0-.248S13.3,10.165,13.3,10.07A38.683,38.683,0,0,1,4.472,8.959C1.723,8.218.023,7.123.023,5.85c0-.026-.008-1.639-.006-1.665a.246.246,0,0,1,.011-.06c.1-1.227,1.775-2.28,4.445-3A40.382,40.382,0,0,1,14.521,0Zm.457,10.082-.457,0H14.2c0,.1.021,9.962.019,10.037,0,.107,0,.21,0,.31.012.247.021.894.429.874.45-.023.34-.815.341-1.082,0-.217,0-.434,0-.631,0-.241,0-.408,0-.435V10.081Zm.817,11.154a1.664,1.664,0,0,1-.109.319,1.05,1.05,0,0,1-1,.643c-.033,0-.067,0-.1,0a1.131,1.131,0,0,1-.95-.56,1.758,1.758,0,0,1-.191-.416,4.4,4.4,0,0,0-1.521.618,2.469,2.469,0,0,0-.981.979.353.353,0,0,0-.035.137.423.423,0,0,0,.159.285,2.226,2.226,0,0,0,.636.387,8.765,8.765,0,0,0,2.94.6,9.757,9.757,0,0,0,1.969-.187,4.624,4.624,0,0,0,1.366-.467c.26-.153.427-.323.429-.5A.454.454,0,0,0,18.4,23a2.066,2.066,0,0,0-.98-1.125,4.261,4.261,0,0,0-1.625-.634ZM28.1,5.785a10.017,10.017,0,0,1-3.532,1.56A40.382,40.382,0,0,1,14.52,8.47,40.382,40.382,0,0,1,4.472,7.345,9.96,9.96,0,0,1,.924,5.774V5.85c0,.817,1.444,1.615,3.779,2.245A39.514,39.514,0,0,0,14.52,9.188a39.514,39.514,0,0,0,9.817-1.093C26.673,7.465,28.1,6.667,28.1,5.85,28.1,5.846,28.1,5.823,28.1,5.785ZM24.336,1.991A39.514,39.514,0,0,0,14.519.9,39.514,39.514,0,0,0,4.7,1.991C2.367,2.62.923,3.418.923,4.235S2.367,5.851,4.7,6.48a39.514,39.514,0,0,0,9.817,1.093A39.514,39.514,0,0,0,24.336,6.48c2.335-.63,3.779-1.428,3.779-2.245S26.672,2.62,24.336,1.991Z" transform="translate(-0.017)" fill="#333"/><path d="M120.279,223.478a4.261,4.261,0,0,0-1.625-.634,1.663,1.663,0,0,1-.109.319,1.05,1.05,0,0,1-1,.643c-.033,0-.067,0-.1,0a1.131,1.131,0,0,1-.95-.56,1.759,1.759,0,0,1-.191-.416,4.4,4.4,0,0,0-1.521.618,2.469,2.469,0,0,0-.981.979.353.353,0,0,0-.035.137.423.423,0,0,0,.159.285,2.226,2.226,0,0,0,.636.387,8.764,8.764,0,0,0,2.94.6,9.756,9.756,0,0,0,1.969-.187,4.624,4.624,0,0,0,1.366-.467c.26-.153.427-.323.429-.5a.454.454,0,0,0-.009-.085,2.066,2.066,0,0,0-.98-1.125Z" transform="translate(-102.877 -201.607)" fill="#fff" fill-rule="evenodd"/><path d="M148.869,114.935V105.86l-.457,0h-.324c0,.1.021,9.962.019,10.037,0,.107,0,.21,0,.31.012.247.021.894.429.874.45-.023.34-.815.341-1.082,0-.217,0-.434,0-.631,0-.241,0-.408,0-.435Z" transform="translate(-133.91 -95.778)" fill="#fff" fill-rule="evenodd"/><path d="M23.076,64.024a39.514,39.514,0,0,0,9.817-1.093c2.335-.63,3.763-1.428,3.763-2.245,0,0,0-.027,0-.065a10.017,10.017,0,0,1-3.532,1.56,40.383,40.383,0,0,1-10.049,1.125,40.383,40.383,0,0,1-10.049-1.125A9.96,9.96,0,0,1,9.48,60.61v.076c0,.817,1.444,1.615,3.779,2.245a39.514,39.514,0,0,0,9.817,1.093Z" transform="translate(-8.574 -54.837)" fill="#fff" fill-rule="evenodd"/><path d="M23.076,16.086a39.514,39.514,0,0,0,9.817-1.093c2.335-.63,3.779-1.428,3.779-2.245s-1.444-1.615-3.779-2.245A39.514,39.514,0,0,0,23.076,9.41,39.514,39.514,0,0,0,13.259,10.5c-2.335.63-3.779,1.428-3.779,2.245s1.444,1.615,3.779,2.245A39.514,39.514,0,0,0,23.076,16.086Z" transform="translate(-8.574 -8.513)" fill="#fff" fill-rule="evenodd"/></g></g><rect width="29" height="29" transform="translate(44 464)" fill="none" opacity="0.3"/></g></svg>