<svg xmlns="http://www.w3.org/2000/svg" width="29" height="29" viewBox="0 0 29 29"><g transform="translate(-44 -264)"><g transform="translate(45.728 264)"><path d="M19.96,26.414V4.039a2.8,2.8,0,0,1,.051-.524,2.3,2.3,0,0,1,.154-.5,2.446,2.446,0,0,1,.248-.463,3.075,3.075,0,0,1,.332-.407,2.524,2.524,0,0,1,.407-.332,2.745,2.745,0,0,1,.463-.248,3.1,3.1,0,0,1,.5-.154,2.8,2.8,0,0,1,.524-.051H32.866a2.8,2.8,0,0,1,.524.051,2.3,2.3,0,0,1,.5.154,2.446,2.446,0,0,1,.463.248,3.075,3.075,0,0,1,.407.332,2.523,2.523,0,0,1,.332.407,2.744,2.744,0,0,1,.248.463,3.1,3.1,0,0,1,.154.5,2.8,2.8,0,0,1,.051.524V26.414a2.8,2.8,0,0,1-.051.524,2.3,2.3,0,0,1-.154.5,2.446,2.446,0,0,1-.248.463,3.075,3.075,0,0,1-.332.407,2.523,2.523,0,0,1-.407.332,2.744,2.744,0,0,1-.463.248,3.1,3.1,0,0,1-.5.154,2.8,2.8,0,0,1-.524.051H22.639a2.8,2.8,0,0,1-.524-.051,2.3,2.3,0,0,1-.5-.154,2.446,2.446,0,0,1-.463-.248,3.075,3.075,0,0,1-.407-.332,2.523,2.523,0,0,1-.332-.407,2.744,2.744,0,0,1-.248-.463,3.1,3.1,0,0,1-.154-.5A2.8,2.8,0,0,1,19.96,26.414Z" transform="translate(-10.627 -0.724)" fill="#fff"/><path d="M18.579,26.489V2.511a2.494,2.494,0,0,1,.047-.491,2.678,2.678,0,0,1,.145-.468A2.427,2.427,0,0,1,19,1.118a2.768,2.768,0,0,1,.309-.383A2.307,2.307,0,0,1,19.7.426a2.764,2.764,0,0,1,.435-.234A2.678,2.678,0,0,1,20.6.047,2.494,2.494,0,0,1,21.09,0H32.92a2.494,2.494,0,0,1,.491.047,2.678,2.678,0,0,1,.468.145,2.427,2.427,0,0,1,.435.234A2.768,2.768,0,0,1,34.7.734a2.458,2.458,0,0,1,.542.814l.014.037a2.563,2.563,0,0,1,.131.435,2.494,2.494,0,0,1,.047.491V26.489a2.494,2.494,0,0,1-.047.491,2.677,2.677,0,0,1-.145.468,2.427,2.427,0,0,1-.234.435,2.768,2.768,0,0,1-.309.383,2.307,2.307,0,0,1-.383.309,2.764,2.764,0,0,1-.435.234,2.5,2.5,0,0,1-.472.145,2.461,2.461,0,0,1-.491.047H21.086a2.494,2.494,0,0,1-.491-.047l-.028,0a2.574,2.574,0,0,1-.444-.14l-.037-.019a2.5,2.5,0,0,1-.4-.215,2.768,2.768,0,0,1-.383-.309A2.307,2.307,0,0,1,19,27.882a2.764,2.764,0,0,1-.234-.435,2.679,2.679,0,0,1-.145-.468,2.494,2.494,0,0,1-.047-.491ZM19.861,2.511V26.489a1.289,1.289,0,0,0,.023.238,1.53,1.53,0,0,0,.07.234,1.5,1.5,0,0,0,.112.21,1.71,1.71,0,0,0,.154.187,1.088,1.088,0,0,0,.187.154,1.2,1.2,0,0,0,.187.1l.028.009a1.211,1.211,0,0,0,.21.065l.019,0a1.33,1.33,0,0,0,.238.023H32.92a1.288,1.288,0,0,0,.238-.023h0a1,1,0,0,0,.229-.07h0a1.5,1.5,0,0,0,.21-.112,1.709,1.709,0,0,0,.187-.154,1.088,1.088,0,0,0,.154-.187,1.5,1.5,0,0,0,.112-.21,1.529,1.529,0,0,0,.07-.234,1.33,1.33,0,0,0,.023-.238V2.511a1.289,1.289,0,0,0-.023-.238.882.882,0,0,0-.061-.206l-.009-.023a1.19,1.19,0,0,0-.267-.4,1.088,1.088,0,0,0-.187-.154,1.5,1.5,0,0,0-.21-.112,1.53,1.53,0,0,0-.234-.07,1.33,1.33,0,0,0-.238-.023H21.095a1.289,1.289,0,0,0-.238.023,1.53,1.53,0,0,0-.234.07,1.5,1.5,0,0,0-.21.112,1.709,1.709,0,0,0-.187.154,1.088,1.088,0,0,0-.154.187,1.5,1.5,0,0,0-.112.21,1.53,1.53,0,0,0-.07.234,1.33,1.33,0,0,0-.023.238Z" transform="translate(-9.887 0)" fill="#333"/><path d="M16.913,29.8H0V27.349c.915,0,1.659-1.688,1.659-2.579S1.26,22.5.345,22.5V20.364H16.913l-.253,2.4c-.915,0-1.406,1.117-1.406,2.008s.745,2.318,1.659,2.318V29.8Z" transform="translate(0.739 -10.332)" fill="#ebc74e"/><path d="M17.249,29.349v-1.5a3.172,3.172,0,0,1,0-5.742V20.717H1.337v1.393a3.175,3.175,0,0,1,1.824,2.871,3.175,3.175,0,0,1-1.824,2.871v1.5Zm1.337,1.337H0V26.815a1.831,1.831,0,0,0,1.824-1.833A1.831,1.831,0,0,0,0,23.149V19.38H18.587v3.769a1.833,1.833,0,0,0,0,3.666Z" transform="translate(0 -10.318)" fill="#333"/><path d="M23.1,20.951a.641.641,0,0,1,1.281,0v1.258a.641.641,0,0,1-1.281,0Z" transform="translate(-12.299 -10.813)" fill="#333"/><path d="M23.1,37.981a.641.641,0,1,1,1.281,0v1.431a.641.641,0,1,1-1.281,0Z" transform="translate(-12.299 -19.88)" fill="#333"/><path d="M11.281,28.241a.641.641,0,0,1,0-1.281h2.427a.641.641,0,0,1,0,1.281Z" transform="translate(-5.665 -14.354)" fill="#333"/><path d="M11.281,33.621a.641.641,0,1,1,0-1.281h2.427a.641.641,0,1,1,0,1.281Z" transform="translate(-5.665 -17.218)" fill="#333"/><path d="M20.011,50.3a.641.641,0,1,1,0-1.281H34.74a.641.641,0,1,1,0,1.281Z" transform="translate(-10.313 -26.099)" fill="#333"/><path d="M20.011,8.841a.641.641,0,1,1,0-1.281H35a.641.641,0,0,1,0,1.281H20.011Z" transform="translate(-10.313 -4.025)" fill="#333"/><path d="M32.941,54.371a.641.641,0,1,1,0-1.281h2.525a.641.641,0,1,1,0,1.281Z" transform="translate(-17.197 -28.266)" fill="#333"/><path d="M23.1,28.421a.641.641,0,0,1,1.281,0v1.824a.641.641,0,0,1-1.281,0Z" transform="translate(-12.299 -14.79)" fill="#333"/></g><rect width="29" height="29" transform="translate(44 264)" fill="none" opacity="0.3"/></g></svg>