<svg xmlns="http://www.w3.org/2000/svg" width="51.154" height="51.133" viewBox="0 0 51.154 51.133">
  <path id="buy" d="M50.28,7.4a10.87,10.87,0,0,0-6.5-6.5C40.987,0,38.451,0,33.293,0H17.819C12.7,0,10.124,0,7.375.853a10.87,10.87,0,0,0-6.5,6.522C0,10.146,0,12.7,0,17.819v15.5c0,5.137,0,7.673.853,10.444a10.87,10.87,0,0,0,6.5,6.5c2.771.874,5.329.874,10.444.874H33.314c5.137,0,7.694,0,10.444-.853a10.87,10.87,0,0,0,6.522-6.522c.874-2.771.874-5.329.874-10.444V17.861c0-5.137,0-7.694-.874-10.465ZM37.129,17.265l-1.982,1.982a1.066,1.066,0,0,1-1.428.021,10.657,10.657,0,0,0-6.863-2.515c-2.067,0-4.135.682-4.135,2.579,0,1.918,2.217,2.558,4.774,3.517,4.476,1.492,8.185,3.368,8.185,7.758,0,4.774-3.709,8.057-9.762,8.419l-.554,2.558a1.044,1.044,0,0,1-1.023.831H20.526l-.192-.021a1.066,1.066,0,0,1-.81-1.258l.6-2.707a13.939,13.939,0,0,1-6.138-3.346v-.021a1.023,1.023,0,0,1,0-1.449l2.131-2.067a1.044,1.044,0,0,1,1.428,0,10.307,10.307,0,0,0,7.226,2.813c2.771,0,4.625-1.172,4.625-3.027s-1.876-2.345-5.414-3.666c-3.751-1.343-7.311-3.24-7.311-7.673,0-5.158,4.284-7.673,9.357-7.908l.533-2.622a1.023,1.023,0,0,1,1.023-.81h3.794l.213.021a1.02,1.02,0,0,1,.789,1.215L31.8,12.81a16,16,0,0,1,5.286,2.963l.043.043a1.016,1.016,0,0,1,0,1.449Z" fill="#fff"/>
</svg>
