<svg xmlns="http://www.w3.org/2000/svg" width="47.402" height="47.358" viewBox="0 0 47.402 47.358">
  <path id="edit" d="M41.492,47.357H5.94a5.712,5.712,0,0,1-4.19-1.736,5.7,5.7,0,0,1-1.735-4.19V5.879A5.634,5.634,0,0,1,1.751,1.712,5.747,5.747,0,0,1,5.941,0H32.6L26.679,5.877H8.9A2.826,2.826,0,0,0,6.8,6.757,2.883,2.883,0,0,0,5.94,8.839V38.466a2.826,2.826,0,0,0,.879,2.106,2.883,2.883,0,0,0,2.082.857H38.528a2.926,2.926,0,0,0,2.963-2.963V20.693l5.926-5.926V41.431a5.927,5.927,0,0,1-5.926,5.926ZM14.828,25.877,21.5,32.544l-9.628,2.963Zm9.628,4.444-7.407-7.36L39.223.741a2.742,2.742,0,0,1,3.748,0l3.658,3.7a2.568,2.568,0,0,1,.764,1.828,2.476,2.476,0,0,1-.764,1.874Z" transform="translate(-0.015 0.001)" fill="#fff"/>
</svg>
