<svg xmlns="http://www.w3.org/2000/svg" width="33.048" height="56.075" viewBox="0 0 33.048 56.075">
  <g id="reserve" transform="translate(0 0)">
    <path id="smartphone-iphone" d="M26.725.375A6,6,0,0,1,31.2,2.284a6.287,6.287,0,0,1,1.848,4.534v43.19A6.3,6.3,0,0,1,31.2,54.541a6,6,0,0,1-4.475,1.909H6.323a6,6,0,0,1-4.475-1.909A6.287,6.287,0,0,1,0,50.007V6.818A6.3,6.3,0,0,1,1.848,2.284,6,6,0,0,1,6.323.375Zm-10.2,53.45a3.847,3.847,0,0,0,2.744-1.074A3.544,3.544,0,0,0,20.4,50.066a3.872,3.872,0,0,0-3.878-3.878,3.54,3.54,0,0,0-2.685,1.134,3.841,3.841,0,0,0-1.074,2.744,3.67,3.67,0,0,0,3.759,3.759ZM28.037,43.684V8.011H5.13V43.684H28.037Z" transform="translate(0 -0.375)" fill="#fff"/>
    <path id="ticket-star" d="M16.806,9.234a1.868,1.868,0,0,0,1.882,1.882v3.72a1.869,1.869,0,0,1-1.882,1.882H1.882a1.816,1.816,0,0,1-1.335-.547A1.814,1.814,0,0,1,0,14.836v-3.72a1.816,1.816,0,0,0,1.335-.547,1.815,1.815,0,0,0,.547-1.335A1.819,1.819,0,0,0,1.335,7.9,1.813,1.813,0,0,0,0,7.352V3.632A1.816,1.816,0,0,1,.547,2.3,1.814,1.814,0,0,1,1.882,1.75H16.806a1.868,1.868,0,0,1,1.882,1.882v3.72a1.868,1.868,0,0,0-1.882,1.882ZM12.692,13.7,11.642,9.89l3.108-2.538-3.982-.219L9.323,3.457,7.878,7.133l-3.939.219L7,9.89,6,13.7l3.326-2.144Z" transform="translate(7.18 16.616)" fill="#fff"/>
  </g>
</svg>
