<svg xmlns="http://www.w3.org/2000/svg" width="46.747" height="47.884" viewBox="0 0 46.747 47.884">
  <path id="settings" d="M41.15,26.551l5.058,3.934a1.189,1.189,0,0,1,.337,1.574l-4.833,8.318a.983.983,0,0,1-1.461.449l-5.957-2.36a22.678,22.678,0,0,1-4.046,2.36l-.9,6.295a1.073,1.073,0,0,1-1.237,1.012H18.559a1.157,1.157,0,0,1-1.237-1.012l-.9-6.295a18.437,18.437,0,0,1-4.046-2.36l-5.957,2.36a1.094,1.094,0,0,1-1.461-.449L.125,32.058a1.189,1.189,0,0,1,.337-1.574L5.52,26.55q-.112-1.349-.112-2.36t.112-2.36L.462,17.9a1.189,1.189,0,0,1-.337-1.574L4.958,8a1.014,1.014,0,0,1,1.461-.449l5.957,2.36a22.678,22.678,0,0,1,4.046-2.36l.9-6.295A1.157,1.157,0,0,1,18.559.249h9.553a1.074,1.074,0,0,1,1.237,1.012l.9,6.295a18.437,18.437,0,0,1,4.046,2.36l5.957-2.36A1.094,1.094,0,0,1,41.713,8l4.833,8.318a1.189,1.189,0,0,1-.337,1.574L41.15,21.83a14.567,14.567,0,0,1,.225,2.36A14.567,14.567,0,0,1,41.15,26.551ZM23.336,32.621a8.055,8.055,0,0,0,5.9-2.472,8.12,8.12,0,0,0,2.472-5.957,8.12,8.12,0,0,0-2.472-5.957,8.278,8.278,0,0,0-11.8,0,8.12,8.12,0,0,0-2.472,5.957,8.12,8.12,0,0,0,2.472,5.957A8.055,8.055,0,0,0,23.336,32.621Z" transform="translate(0.038 -0.249)" fill="#fff"/>
</svg>
