<svg xmlns="http://www.w3.org/2000/svg" width="56.929" height="53.373" viewBox="0 0 56.929 53.373">
  <path id="staff" d="M19.047,17.56l7.771-15.4a1.829,1.829,0,0,1,3.3,0l7.771,15.4,17.426,2.476a1.91,1.91,0,0,1,1.613,1.8,1.958,1.958,0,0,1-.606,1.583L43.785,35.356l2.952,16.83a1.888,1.888,0,0,1-2.655,2.106L28.462,46.266,12.846,54.293a1.847,1.847,0,0,1-.519.179,1.917,1.917,0,0,1-2.135-2.285l2.952-16.83L.613,23.416A1.958,1.958,0,0,1,0,21.981a2.1,2.1,0,0,1,.3-1.074,1.825,1.825,0,0,1,1.317-.871L19.047,17.56Zm9.415,24.579a1.757,1.757,0,0,1,.825.2L42.4,49.076,39.933,35a2.007,2.007,0,0,1,.58-1.8l10.339-9.855L36.435,21.3a1.868,1.868,0,0,1-1.4-1.025L28.47,7.256l-.008.009V42.134Z" transform="translate(-0.004 -1.125)" fill="#fff" fill-rule="evenodd"/>
</svg>
