<svg xmlns="http://www.w3.org/2000/svg" width="56.072" height="56.075" viewBox="0 0 56.072 56.075">
  <path id="ticket" d="M32.739,13.7,43.254,24.219,24.219,43.254,13.7,32.739ZM25.717,46.283,46.283,25.717a2.091,2.091,0,0,0,0-3L34.236,10.673a2.173,2.173,0,0,0-3,0L10.675,31.24a2.091,2.091,0,0,0,0,3L22.722,46.284a2.173,2.173,0,0,0,3,0ZM55.3,25.084,25.118,55.3a4.3,4.3,0,0,1-6.022,0L14.9,51.108a6.425,6.425,0,0,0,0-9.051,6.161,6.161,0,0,0-4.525-1.864,6.161,6.161,0,0,0-4.525,1.864L1.69,37.863a4.3,4.3,0,0,1,0-6.024L31.873,1.69a4.3,4.3,0,0,1,6.022,0l4.159,4.159a6.161,6.161,0,0,0-1.864,4.525A6.161,6.161,0,0,0,42.055,14.9a6.425,6.425,0,0,0,9.051,0L55.3,19.059a4.3,4.3,0,0,1,0,6.022Z" transform="translate(-0.458 -0.458)" fill="#fff"/>
</svg>
