<svg xmlns="http://www.w3.org/2000/svg" width="35.748" height="39.472" viewBox="0 0 35.748 39.472"><path d="M4.1,9.309V6.33H1.117a1.117,1.117,0,0,1,0-2.233H4.1V1.117a1.117,1.117,0,0,1,2.233,0V4.1H9.309a1.117,1.117,0,1,1,0,2.233H6.33V9.309a1.117,1.117,0,1,1-2.233,0Z" transform="translate(23.832)" fill="#292d32"/><path d="M16.052,26.568H6.638A7.093,7.093,0,0,1,.879,24.209,7.727,7.727,0,0,1-.75,19.18V6.638c0-2.761.524-4.516,1.7-5.69s2.929-1.7,5.69-1.7h9.414c2.761,0,4.516.524,5.69,1.7s1.7,2.929,1.7,5.69V19.18c0,2.76-.526,4.515-1.7,5.691S18.807,26.568,16.052,26.568ZM6.638,1.484c-4.094,0-5.154,1.06-5.154,5.154V19.18c0,1.925.67,5.154,5.154,5.154h9.414c4.094,0,5.154-1.06,5.154-5.154V6.638c0-4.094-1.06-5.154-5.154-5.154Z" transform="translate(2.612 8.689)" fill="#292d32"/><path d="M6.336,18.063a4.319,4.319,0,0,1-2.473-.895l-4.138-2.9a1.117,1.117,0,0,1-.476-.915v-9.4a1.117,1.117,0,0,1,.476-.915L3.866.133A4.328,4.328,0,0,1,6.328-.75C7.817-.75,9.319.4,9.319,2.984v11.35C9.319,16.91,7.821,18.063,6.336,18.063ZM1.484,12.77,5.15,15.341a2.156,2.156,0,0,0,1.187.488c.675,0,.748-1.045.748-1.495V2.984c0-.451-.074-1.5-.757-1.5a2.156,2.156,0,0,0-1.181.479L1.484,4.533Z" transform="translate(24.567 12.94)" fill="#292d32"/><path d="M2.6-.75A3.351,3.351,0,1,1-.75,2.6,3.355,3.355,0,0,1,2.6-.75Zm0,4.469A1.117,1.117,0,1,0,1.484,2.6,1.118,1.118,0,0,0,2.6,3.719Z" transform="translate(14.528 15.273)" fill="#292d32"/><path d="M0,0H35.748V35.748H0Z" transform="translate(0 3.724)" fill="none" opacity="0"/></svg>