<svg xmlns="http://www.w3.org/2000/svg" width="125.956" height="33.188" viewBox="0 0 125.956 33.188"><g transform="translate(-24 -22)"><path d="M1.36-11.475v2.006H7.327a1.441,1.441,0,0,1,1.581,1.53,1.482,1.482,0,0,1-1.6,1.581H3.179c-1.258,0-1.8.527-1.8,1.819V0H3.383V-4.148a.253.253,0,0,1,.289-.289h3.57a3.409,3.409,0,0,0,3.689-3.6c0-1.836-1.1-3.434-3.689-3.434ZM18.6-9.231a.58.58,0,0,1,.578-.391.546.546,0,0,1,.561.391L23.222,0h2.227L21.573-10.2a2.226,2.226,0,0,0-2.38-1.479A2.268,2.268,0,0,0,16.779-10.2L12.75,0h2.21ZM29.24-11.475v2.006h6.29a1.442,1.442,0,0,1,1.6,1.513,1.486,1.486,0,0,1-1.6,1.6H31.059c-1.258,0-1.8.527-1.8,1.819V0h2.006V-4.148a.253.253,0,0,1,.289-.289h2.992L37.162,0h2.227L36.72-4.59a3.38,3.38,0,0,0,2.431-3.451c0-1.836-1.1-3.434-3.689-3.434Zm13.175,0v2.006h3.349V0h2.023V-9.469h3.349v-2.006Zm12.733,0V0h2.006V-11.475ZM66.827-9.231a.58.58,0,0,1,.578-.391.547.547,0,0,1,.561.391L71.451,0h2.227L69.8-10.2a2.226,2.226,0,0,0-2.38-1.479A2.268,2.268,0,0,0,65.008-10.2L60.979,0h2.21Zm14.807-2.244c-3.043,0-4.233,1.666-4.233,3.961V0h2.006V-4.539h6.919v-1.9H79.407V-7.531c0-1.071.544-1.938,2.363-1.938h4.624v-2.006Z" transform="translate(63.562 44.679)" fill="#fff"/><path d="M16.594,0h0a16.594,16.594,0,0,1,0,33.188h0A16.594,16.594,0,0,1,16.594,0h0Zm-5.7,17.195h2.877a2.211,2.211,0,0,1,2.2,2.2v3.151A1.076,1.076,0,0,1,14.9,23.623H11.309A1.733,1.733,0,0,1,9.581,21.9V18.506a1.315,1.315,0,0,1,1.311-1.311ZM21.7,8.233H18.955a1.746,1.746,0,0,1-1.741-1.741V4.577a1.226,1.226,0,0,1,1.223-1.223h1.384A2.887,2.887,0,0,1,22.7,6.232v1a1,1,0,0,1-1,1Zm3.785.646a1.906,1.906,0,0,1-1.309-1.8c0-.615-.037-1.414.926-1.024,1,.406,2.353,1.808,2.08,2.428S26.027,9.057,25.484,8.878Zm2.954,7.114H26.7A1.7,1.7,0,0,1,25,14.3V11.65a1.243,1.243,0,0,1,1.24-1.24h.578a3.113,3.113,0,0,1,3.1,3.1v1a1.487,1.487,0,0,1-1.482,1.482Zm-6.142,0H19.42a2.211,2.211,0,0,1-2.2-2.2V10.637a1.076,1.076,0,0,1,1.073-1.073h3.592a1.733,1.733,0,0,1,1.728,1.728v3.389A1.315,1.315,0,0,1,22.3,15.993Zm-.6,8.962H18.955A1.746,1.746,0,0,0,17.215,26.7v1.916a1.226,1.226,0,0,0,1.223,1.223h1.384A2.887,2.887,0,0,0,22.7,26.956v-1a1,1,0,0,0-1-1Zm3.785-.646a1.906,1.906,0,0,0-1.309,1.8c0,.615-.037,1.414.926,1.024,1-.406,2.353-1.808,2.08-2.428S26.027,24.131,25.484,24.309Zm2.954-7.114H26.7a1.7,1.7,0,0,0-1.7,1.7v2.645a1.243,1.243,0,0,0,1.24,1.24h.578a3.113,3.113,0,0,0,3.1-3.1v-1a1.487,1.487,0,0,0-1.482-1.482Zm-6.142,0H19.42a2.211,2.211,0,0,0-2.2,2.2v3.151a1.076,1.076,0,0,0,1.073,1.073h3.592A1.733,1.733,0,0,0,23.607,21.9V18.506A1.315,1.315,0,0,0,22.3,17.195ZM11.489,8.233h2.744a1.746,1.746,0,0,0,1.741-1.741V4.577A1.226,1.226,0,0,0,14.75,3.354H13.366a2.887,2.887,0,0,0-2.879,2.879v1a1,1,0,0,0,1,1ZM7.7,8.878a1.906,1.906,0,0,0,1.309-1.8c0-.615.037-1.414-.926-1.024-1,.406-2.353,1.808-2.08,2.428S7.161,9.057,7.7,8.878ZM4.749,15.993H6.492a1.7,1.7,0,0,0,1.7-1.7V11.65a1.243,1.243,0,0,0-1.24-1.24H6.371a3.113,3.113,0,0,0-3.1,3.1v1a1.487,1.487,0,0,0,1.482,1.482Zm6.142,0h2.877a2.211,2.211,0,0,0,2.2-2.2V10.637A1.076,1.076,0,0,0,14.9,9.565H11.309a1.733,1.733,0,0,0-1.728,1.728v3.389a1.315,1.315,0,0,0,1.311,1.311Zm.6,8.962h2.744A1.746,1.746,0,0,1,15.973,26.7v1.916a1.226,1.226,0,0,1-1.223,1.223H13.366a2.887,2.887,0,0,1-2.879-2.879v-1a1,1,0,0,1,1-1ZM7.7,24.309a1.906,1.906,0,0,1,1.309,1.8c0,.615.037,1.414-.926,1.024-1-.406-2.353-1.808-2.08-2.428S7.161,24.131,7.7,24.309ZM4.749,17.195H6.492a1.7,1.7,0,0,1,1.7,1.7v2.645a1.243,1.243,0,0,1-1.24,1.24H6.371a3.113,3.113,0,0,1-3.1-3.1v-1a1.487,1.487,0,0,1,1.482-1.482ZM16.594,1.682A14.912,14.912,0,1,0,27.139,6.049,14.866,14.866,0,0,0,16.594,1.682Z" transform="translate(24 22)" fill="#fff"/></g></svg>