<svg xmlns="http://www.w3.org/2000/svg" width="24" height="24" viewBox="0 0 24 24"><path d="M14,3.11V14.47c0,1.45-1.04,2.06-2.31,1.36L7.76,13.64a1.76,1.76,0,0,0-1.52,0L2.31,15.83c-1.27.7-2.31.09-2.31-1.36V3.11A3.12,3.12,0,0,1,3.11,0h7.78A3.12,3.12,0,0,1,14,3.11Z" transform="translate(2 5.88)" fill="none" stroke="#fff" stroke-linecap="round" stroke-linejoin="round" stroke-width="1.5"/><path d="M14,3.11V14.47c0,1.45-1.04,2.06-2.31,1.36L8,13.77V6.99A3.12,3.12,0,0,0,4.89,3.88H0V3.11A3.12,3.12,0,0,1,3.11,0h7.78A3.12,3.12,0,0,1,14,3.11Z" transform="translate(8 2)" fill="none" stroke="#fff" stroke-linecap="round" stroke-linejoin="round" stroke-width="1.5"/><path d="M0,0H4" transform="translate(7 12)" fill="none" stroke="#fff" stroke-linecap="round" stroke-linejoin="round" stroke-width="1.5"/><path d="M0,0H24V24H0Z" fill="none" opacity="0"/></svg>