<svg xmlns="http://www.w3.org/2000/svg" width="27.992" height="24.493" viewBox="0 0 27.992 24.493">
  <path id="chatt-imagen-icon" d="M0,5.749a3.5,3.5,0,0,1,3.5-3.5H24.5a3.5,3.5,0,0,1,3.5,3.5v17.5a3.5,3.5,0,0,1-3.5,3.5H3.5a3.5,3.5,0,0,1-3.5-3.5V5.749Zm1.75,15.746,4.63-4.118a.875.875,0,0,1,1.1-.109l4.654,3.1,6.491-6.491a.875.875,0,0,1,1.009-.164l6.608,3.406v6.123a1.75,1.75,0,0,1-1.75,1.75H3.5a1.75,1.75,0,0,1-1.75-1.75v-1.75ZM10.5,10.123A2.624,2.624,0,1,1,7.878,7.5,2.624,2.624,0,0,1,10.5,10.123Z" transform="translate(-0.005 -2.25)" fill="#333" fill-rule="evenodd"/>
</svg>
