<svg xmlns="http://www.w3.org/2000/svg" width="61.82" height="61.82" viewBox="0 0 61.82 61.82">
  <path id="logo-header" d="M30.91,0h0a30.91,30.91,0,0,1,0,61.82h0A30.91,30.91,0,0,1,30.91,0h0ZM20.288,32.03h5.358a4.119,4.119,0,0,1,4.107,4.107v5.869a2,2,0,0,1-2,2h-6.69a3.228,3.228,0,0,1-3.219-3.219V34.471a2.449,2.449,0,0,1,2.442-2.442ZM40.42,15.335H35.309a3.252,3.252,0,0,1-3.242-3.242V8.525a2.285,2.285,0,0,1,2.278-2.278h2.577a5.378,5.378,0,0,1,5.362,5.362v1.863a1.869,1.869,0,0,1-1.864,1.864Zm7.05,1.2a3.55,3.55,0,0,1-2.438-3.36c0-1.146-.069-2.634,1.725-1.908,1.869.756,4.382,3.367,3.874,4.522S48.481,16.871,47.47,16.538Zm5.5,13.252H49.728a3.172,3.172,0,0,1-3.162-3.162V21.7a2.316,2.316,0,0,1,2.309-2.309h1.077a5.8,5.8,0,0,1,5.782,5.782v1.855a2.769,2.769,0,0,1-2.761,2.761Zm-11.441,0H36.173a4.119,4.119,0,0,1-4.107-4.107V19.814a2,2,0,0,1,2-2h6.69a3.228,3.228,0,0,1,3.219,3.219v6.313a2.449,2.449,0,0,1-2.442,2.442ZM40.42,46.485H35.309a3.252,3.252,0,0,0-3.242,3.242v3.568a2.285,2.285,0,0,0,2.278,2.278h2.577a5.378,5.378,0,0,0,5.362-5.362V48.348a1.869,1.869,0,0,0-1.864-1.864Zm7.05-1.2a3.55,3.55,0,0,0-2.438,3.36c0,1.146-.069,2.633,1.725,1.908,1.869-.756,4.382-3.367,3.874-4.522s-2.151-1.079-3.162-.747Zm5.5-13.252H49.728a3.172,3.172,0,0,0-3.162,3.162v4.927a2.316,2.316,0,0,0,2.309,2.309h1.077a5.8,5.8,0,0,0,5.782-5.782V34.791a2.769,2.769,0,0,0-2.761-2.761Zm-11.441,0H36.173a4.119,4.119,0,0,0-4.107,4.107v5.869a2,2,0,0,0,2,2h6.69a3.228,3.228,0,0,0,3.219-3.219V34.471a2.449,2.449,0,0,0-2.442-2.442ZM21.4,15.335h5.111a3.252,3.252,0,0,0,3.242-3.242V8.525a2.285,2.285,0,0,0-2.278-2.278H24.9a5.378,5.378,0,0,0-5.362,5.362v1.863A1.869,1.869,0,0,0,21.4,15.335Zm-7.05,1.2a3.55,3.55,0,0,0,2.438-3.36c0-1.146.069-2.634-1.725-1.908-1.869.756-4.382,3.367-3.874,4.522S13.339,16.871,14.35,16.538Zm-5.5,13.252h3.245a3.172,3.172,0,0,0,3.162-3.162V21.7a2.316,2.316,0,0,0-2.309-2.309H11.868a5.8,5.8,0,0,0-5.782,5.782v1.855A2.769,2.769,0,0,0,8.847,29.79Zm11.441,0h5.358a4.119,4.119,0,0,0,4.107-4.107V19.814a2,2,0,0,0-2-2h-6.69a3.228,3.228,0,0,0-3.219,3.219v6.313a2.449,2.449,0,0,0,2.442,2.442ZM21.4,46.485h5.111a3.252,3.252,0,0,1,3.242,3.242v3.568a2.285,2.285,0,0,1-2.278,2.278H24.9a5.378,5.378,0,0,1-5.362-5.362V48.348A1.869,1.869,0,0,1,21.4,46.485Zm-7.05-1.2a3.55,3.55,0,0,1,2.438,3.36c0,1.146.069,2.633-1.725,1.908-1.869-.756-4.382-3.367-3.874-4.522s2.151-1.079,3.162-.747ZM8.847,32.03h3.245a3.172,3.172,0,0,1,3.162,3.162v4.927a2.316,2.316,0,0,1-2.309,2.309H11.868a5.8,5.8,0,0,1-5.782-5.782V34.791A2.769,2.769,0,0,1,8.847,32.03ZM30.91,3.133a27.777,27.777,0,1,0,19.642,8.136A27.692,27.692,0,0,0,30.91,3.133Z" fill="#fff"/>
</svg>
