<?xml version="1.0" encoding="UTF-8"?>
<!DOCTYPE svg PUBLIC "-//W3C//DTD SVG 1.1//EN" "http://www.w3.org/Graphics/SVG/1.1/DTD/svg11.dtd">
<!-- Creator: CorelDRAW 2021 (64-Bit) -->
<svg xmlns="http://www.w3.org/2000/svg" xml:space="preserve" width="50.291mm" height="6.9072mm" version="1.1" style="shape-rendering:geometricPrecision; text-rendering:geometricPrecision; image-rendering:optimizeQuality; fill-rule:evenodd; clip-rule:evenodd"
viewBox="0 0 1261.62 173.28"
 xmlns:xlink="http://www.w3.org/1999/xlink"
 xmlns:xodm="http://www.corel.com/coreldraw/odm/2003">
 <defs>
  <style type="text/css">
   <![CDATA[
    .fil0 {fill:#333333;fill-rule:nonzero}
   ]]>
  </style>
 </defs>
 <g id="Capa_x0020_1">
  <metadata id="CorelCorpID_0Corel-Layer"/>
  <path class="fil0" d="M-0 3.03l0 29.76 88.53 0c16.14,0 23.46,10.34 23.46,22.7 0,11.85 -6.81,23.46 -23.71,23.46l-61.29 0c-18.66,0 -26.73,7.82 -26.73,26.99l0 67.34 29.76 0 0 -61.54c0,-3.03 1.51,-4.29 4.29,-4.29l52.97 0c39.85,0 54.73,-27.75 54.73,-53.47 0,-27.24 -16.4,-50.95 -54.73,-50.95l-87.27 0zm254.49 33.29c1.77,-4.04 4.54,-5.8 8.57,-5.8 4.04,0 6.81,1.77 8.32,5.8l51.71 136.96 33.04 0 -57.51 -151.33c-6.05,-15.89 -17.66,-21.94 -35.31,-21.94 -17.91,0 -29.51,6.05 -35.82,21.94l-59.78 151.33 32.79 0 53.98 -136.96zm159.15 -33.29l0 29.76 93.32 0c16.39,0 23.71,10.34 23.71,22.45 0,12.11 -6.81,23.71 -23.71,23.71l-66.34 0c-18.66,0 -26.73,7.82 -26.73,26.99l0 67.34 29.76 0 0 -61.54c0,-3.03 1.51,-4.29 4.29,-4.29l44.39 0 38.84 65.83 33.04 0 -39.6 -68.1c25.98,-7.32 36.07,-30.02 36.07,-51.2 0,-27.24 -16.39,-50.95 -54.73,-50.95l-92.32 0zm194.21 0l0 29.76 49.68 0 0 140.49 30.02 0 0 -140.49 49.69 0 0 -29.76 -129.39 0zm190.17 0l0 170.25 29.76 0 0 -170.25 -29.76 0zm172.02 33.29c1.77,-4.04 4.54,-5.8 8.57,-5.8 4.04,0 6.81,1.77 8.32,5.8l51.71 136.96 33.04 0 -57.51 -151.33c-6.05,-15.89 -17.66,-21.94 -35.31,-21.94 -17.91,0 -29.51,6.05 -35.82,21.94l-59.78 151.33 32.79 0 53.98 -136.96zm220.95 -33.29c-45.15,0 -62.8,24.72 -62.8,58.77l0 111.48 29.76 0 0 -67.34 102.66 0 0 -28.25 -102.66 0 0 -16.14c0,-15.89 8.07,-28.75 35.06,-28.75l68.61 0 0 -29.76 -70.62 0z"/>
 </g>
</svg>
