<svg xmlns="http://www.w3.org/2000/svg" width="26.294" height="26.294" viewBox="0 0 26.294 26.294">
  <path id="save-icon" d="M20.473,0l5.82,5.82V23.35a2.923,2.923,0,0,1-2.944,2.944H2.944a2.84,2.84,0,0,1-2.088-.856A2.845,2.845,0,0,1,0,23.35V2.944A2.84,2.84,0,0,1,.856.856,2.845,2.845,0,0,1,2.944,0ZM13.147,23.35a4.237,4.237,0,0,0,3.116-1.266A4.191,4.191,0,0,0,17.529,19a4.313,4.313,0,0,0-1.266-3.116,4.177,4.177,0,0,0-3.116-1.3,4.177,4.177,0,0,0-3.116,1.3A4.313,4.313,0,0,0,8.765,19a4.191,4.191,0,0,0,1.266,3.082A4.237,4.237,0,0,0,13.147,23.35ZM17.529,8.765V2.944H2.944v5.82Z" fill="#333"/>
</svg>
