<svg xmlns="http://www.w3.org/2000/svg" width="243.062" height="303.653" viewBox="0 0 243.062 303.653">
  <path id="search-in-file" d="M243.061,267.543,185.326,209.1a77.4,77.4,0,0,0,12.12-42.057q0-31.365-22.093-53.459T121.894,91.489q-31.365,0-53.818,22.093T45.615,167.041q-.009,31.365,22.453,53.818t53.818,22.453q22.093,0,42.057-12.83l67,67.717a31.655,31.655,0,0,1-17.817,5.705H29.937a28.737,28.737,0,0,1-21.024-8.913A28.81,28.81,0,0,1,0,273.958V30.187A28.737,28.737,0,0,1,8.913,9.163,29.618,29.618,0,0,1,30.647.25H151.822l91.239,91.239ZM76.27,167.4A44.86,44.86,0,0,1,89.46,134.966a43.053,43.053,0,0,1,32.075-13.54,44.31,44.31,0,0,1,32.434,13.54,44.185,44.185,0,0,1,13.54,32.434,43.1,43.1,0,0,1-13.54,32.075,44.915,44.915,0,0,1-32.434,13.189A45.033,45.033,0,0,1,76.27,167.4Z" transform="translate(0 -0.25)" fill="#333"/>
</svg>
