<svg id="reservas-icon" xmlns="http://www.w3.org/2000/svg" width="46.948" height="53.299" viewBox="0 0 46.948 53.299">
  <g id="_2943547788704" transform="translate(0 0)">
    <path id="Trazado_119" data-name="Trazado 119" d="M19.96,47.406V6.284a5.147,5.147,0,0,1,.095-.963,4.225,4.225,0,0,1,.284-.92,4.5,4.5,0,0,1,.455-.851A5.652,5.652,0,0,1,21.4,2.8a4.638,4.638,0,0,1,.748-.61A5.044,5.044,0,0,1,23,1.738a5.691,5.691,0,0,1,.92-.284,5.147,5.147,0,0,1,.963-.095H43.679a5.147,5.147,0,0,1,.963.095,4.225,4.225,0,0,1,.92.284,4.5,4.5,0,0,1,.851.455,5.651,5.651,0,0,1,.748.61,4.638,4.638,0,0,1,.61.748,5.043,5.043,0,0,1,.455.851,5.69,5.69,0,0,1,.284.92,5.147,5.147,0,0,1,.095.963V47.406a5.147,5.147,0,0,1-.095.963,4.225,4.225,0,0,1-.284.92,4.494,4.494,0,0,1-.455.851,5.653,5.653,0,0,1-.61.748,4.637,4.637,0,0,1-.748.61,5.044,5.044,0,0,1-.851.455,5.691,5.691,0,0,1-.92.284,5.147,5.147,0,0,1-.963.095H24.884a5.147,5.147,0,0,1-.963-.095,4.225,4.225,0,0,1-.92-.284,4.5,4.5,0,0,1-.851-.455,5.652,5.652,0,0,1-.748-.61,4.638,4.638,0,0,1-.61-.748,5.044,5.044,0,0,1-.455-.851,5.69,5.69,0,0,1-.284-.92A5.147,5.147,0,0,1,19.96,47.406Z" transform="translate(-2.807 -0.191)" fill="#fff"/>
    <path id="Trazado_120" data-name="Trazado 120" d="M18.587,48.684V4.615a4.585,4.585,0,0,1,.086-.9,4.922,4.922,0,0,1,.266-.859,4.461,4.461,0,0,1,.43-.8,5.087,5.087,0,0,1,.567-.7,4.239,4.239,0,0,1,.7-.567,5.081,5.081,0,0,1,.8-.43A4.922,4.922,0,0,1,22.3.086,4.584,4.584,0,0,1,23.2,0H44.945a4.585,4.585,0,0,1,.9.086,4.922,4.922,0,0,1,.859.266,4.461,4.461,0,0,1,.8.43,5.087,5.087,0,0,1,.7.567,4.517,4.517,0,0,1,1,1.5l.026.069a4.711,4.711,0,0,1,.241.8,4.584,4.584,0,0,1,.086.9v44.07a4.584,4.584,0,0,1-.086.9,4.922,4.922,0,0,1-.266.859,4.46,4.46,0,0,1-.43.8,5.087,5.087,0,0,1-.567.7,4.24,4.24,0,0,1-.7.567,5.081,5.081,0,0,1-.8.43,4.588,4.588,0,0,1-.868.266,4.523,4.523,0,0,1-.9.086H23.194a4.584,4.584,0,0,1-.9-.086L22.24,53.2a4.73,4.73,0,0,1-.816-.258l-.069-.034a4.6,4.6,0,0,1-.73-.4,5.088,5.088,0,0,1-.7-.567,4.24,4.24,0,0,1-.567-.7,5.081,5.081,0,0,1-.43-.8,4.922,4.922,0,0,1-.266-.859,4.584,4.584,0,0,1-.086-.9Zm2.355-44.07v44.07a2.369,2.369,0,0,0,.043.438,2.812,2.812,0,0,0,.129.43,2.757,2.757,0,0,0,.206.387,3.143,3.143,0,0,0,.284.344,2,2,0,0,0,.344.284,2.2,2.2,0,0,0,.344.189l.052.017a2.225,2.225,0,0,0,.387.12l.034.009a2.444,2.444,0,0,0,.438.043H44.945a2.368,2.368,0,0,0,.438-.043h.009a1.833,1.833,0,0,0,.421-.129h.009a2.759,2.759,0,0,0,.387-.206,3.142,3.142,0,0,0,.344-.284,2,2,0,0,0,.284-.344,2.758,2.758,0,0,0,.206-.387,2.811,2.811,0,0,0,.129-.43,2.445,2.445,0,0,0,.043-.438V4.615a2.369,2.369,0,0,0-.043-.438,1.622,1.622,0,0,0-.112-.378l-.017-.043a2.186,2.186,0,0,0-.49-.73,2,2,0,0,0-.344-.284,2.757,2.757,0,0,0-.387-.206,2.811,2.811,0,0,0-.43-.129,2.444,2.444,0,0,0-.438-.043H23.211a2.369,2.369,0,0,0-.438.043,2.811,2.811,0,0,0-.43.129,2.757,2.757,0,0,0-.387.206,3.142,3.142,0,0,0-.344.284,2,2,0,0,0-.284.344,2.758,2.758,0,0,0-.206.387,2.812,2.812,0,0,0-.129.43,2.444,2.444,0,0,0-.043.438Z" transform="translate(-2.611 0)" fill="#333"/>
    <path id="Trazado_121" data-name="Trazado 121" d="M31.085,37.71H0V33.2c1.681,0,3.05-3.1,3.05-4.74s-.735-4.17-2.416-4.17V20.364H31.085l-.466,4.407c-1.681,0-2.584,2.053-2.584,3.691s1.369,4.261,3.05,4.261V37.71Z" transform="translate(1.359 -1.926)" fill="#fdbd00"/>
    <path id="Trazado_122" data-name="Trazado 122" d="M31.7,37.7v-2.75a5.829,5.829,0,0,1,0-10.553V21.838H2.458V24.4a5.836,5.836,0,0,1,3.352,5.277,5.836,5.836,0,0,1-3.352,5.277V37.7Zm2.458,2.458H0V33.044a3.365,3.365,0,0,0,3.352-3.369A3.365,3.365,0,0,0,0,26.307V19.38H34.161v6.927a3.369,3.369,0,0,0,0,6.738Z" transform="translate(0 -2.725)" fill="#333"/>
    <path id="Trazado_123" data-name="Trazado 123" d="M23.1,21.487a1.177,1.177,0,1,1,2.355,0V23.8a1.177,1.177,0,1,1-2.355,0Z" transform="translate(-3.248 -2.856)" fill="#333"/>
    <path id="Trazado_124" data-name="Trazado 124" d="M23.1,38.517a1.177,1.177,0,1,1,2.355,0v2.63a1.177,1.177,0,1,1-2.355,0Z" transform="translate(-3.248 -5.25)" fill="#333"/>
    <path id="Trazado_125" data-name="Trazado 125" d="M11.817,29.315a1.177,1.177,0,0,1,0-2.355h4.46a1.177,1.177,0,0,1,0,2.355Z" transform="translate(-1.496 -3.791)" fill="#333"/>
    <path id="Trazado_126" data-name="Trazado 126" d="M11.817,34.695a1.177,1.177,0,1,1,0-2.355h4.46a1.177,1.177,0,1,1,0,2.355Z" transform="translate(-1.496 -4.547)" fill="#333"/>
    <path id="Trazado_127" data-name="Trazado 127" d="M20.547,51.375a1.177,1.177,0,1,1,0-2.355H47.618a1.177,1.177,0,1,1,0,2.355Z" transform="translate(-2.724 -6.893)" fill="#333"/>
    <path id="Trazado_128" data-name="Trazado 128" d="M20.547,9.915a1.177,1.177,0,1,1,0-2.355H48.091a1.177,1.177,0,1,1,0,2.355H20.547Z" transform="translate(-2.724 -1.063)" fill="#333"/>
    <path id="Trazado_129" data-name="Trazado 129" d="M33.477,55.445a1.177,1.177,0,1,1,0-2.355h4.641a1.177,1.177,0,0,1,0,2.355Z" transform="translate(-4.542 -7.465)" fill="#333"/>
    <path id="Trazado_130" data-name="Trazado 130" d="M23.1,28.957a1.177,1.177,0,1,1,2.355,0v3.352a1.177,1.177,0,0,1-2.355,0Z" transform="translate(-3.248 -3.906)" fill="#333"/>
  </g>
</svg>
