<svg xmlns="http://www.w3.org/2000/svg" width="39.92" height="45.5" viewBox="0 0 39.92 45.5">
  <g id="compras-icon" transform="translate(-0.007 0.005)">
    <g id="_2943554588816" transform="translate(1.02 1.02)">
      <path id="Trazado_107" data-name="Trazado 107" d="M7.125,1.02H32.809A5.7,5.7,0,0,1,34,1.139a6.337,6.337,0,0,1,1.145.346,6.806,6.806,0,0,1,1.049.56,6.131,6.131,0,0,1,1.693,1.693,5.914,5.914,0,0,1,.56,1.049,5.507,5.507,0,0,1,.346,1.145,5.7,5.7,0,0,1,.119,1.192V38.389a5.7,5.7,0,0,1-.119,1.192,6.106,6.106,0,0,1-2.6,3.887,5.914,5.914,0,0,1-1.049.56A5.508,5.508,0,0,1,34,44.375a5.7,5.7,0,0,1-1.192.119H7.125a5.7,5.7,0,0,1-1.192-.119,6.058,6.058,0,0,1-2.194-.906,6.131,6.131,0,0,1-1.693-1.693,5.914,5.914,0,0,1-.56-1.049,5.508,5.508,0,0,1-.346-1.145,5.7,5.7,0,0,1-.119-1.192V7.125a5.7,5.7,0,0,1,.119-1.192,6.337,6.337,0,0,1,.346-1.145,6.806,6.806,0,0,1,.56-1.049A6.131,6.131,0,0,1,3.739,2.045a5.914,5.914,0,0,1,1.049-.56,5.507,5.507,0,0,1,1.145-.346A5.7,5.7,0,0,1,7.125,1.02Z" transform="translate(-1.02 -1.02)" fill="#ebc74e"/>
      <path id="Trazado_108" data-name="Trazado 108" d="M5.6,1.02H34.333a4.541,4.541,0,0,1,.894.083,4.21,4.21,0,0,1,.859.262,4.972,4.972,0,0,1,.787.417,4.779,4.779,0,0,1,1.264,1.264,4.155,4.155,0,0,1,.417.787,4.21,4.21,0,0,1,.262.859,4.541,4.541,0,0,1,.083.894V39.9a4.541,4.541,0,0,1-.083.894,4.21,4.21,0,0,1-.262.859,4.972,4.972,0,0,1-.417.787,4.779,4.779,0,0,1-1.264,1.264,4.155,4.155,0,0,1-.787.417,4.21,4.21,0,0,1-.859.262,4.541,4.541,0,0,1-.894.083H5.6a4.541,4.541,0,0,1-.894-.083,4.21,4.21,0,0,1-.859-.262,4.971,4.971,0,0,1-.787-.417,4.779,4.779,0,0,1-1.264-1.264,4.155,4.155,0,0,1-.417-.787,4.21,4.21,0,0,1-.262-.859A4.541,4.541,0,0,1,1.03,39.9V5.587a4.541,4.541,0,0,1,.083-.894,4.21,4.21,0,0,1,.262-.859,4.971,4.971,0,0,1,.417-.787A4.779,4.779,0,0,1,3.057,1.783a4.155,4.155,0,0,1,.787-.417A4.21,4.21,0,0,1,4.7,1.1,4.541,4.541,0,0,1,5.6,1.02Z" transform="translate(-1.018 -1.02)" fill="#fff" stroke="#333" stroke-linecap="round" stroke-width="2.05"/>
      <path id="Trazado_109" data-name="Trazado 109" d="M18.567,9.84v1.288a7.324,7.324,0,0,1,2.182.525,4.259,4.259,0,0,1,1.586,1.192,4.925,4.925,0,0,1,.823,1.252,2.935,2.935,0,0,1,.286,1.18,1.406,1.406,0,0,1-.429,1.025,1.44,1.44,0,0,1-1.049.429,1.481,1.481,0,0,1-1.514-1.264,2.7,2.7,0,0,0-1.9-1.979v4.96c.99.274,1.765.513,2.349.739a4.9,4.9,0,0,1,1.562.966A4.463,4.463,0,0,1,23.6,21.716a4.988,4.988,0,0,1,.393,1.991,5.345,5.345,0,0,1-.632,2.54,5.1,5.1,0,0,1-1.872,1.932,6.684,6.684,0,0,1-2.945.894v2.969a3.04,3.04,0,0,1-.131,1.025.577.577,0,0,1-.6.322.638.638,0,0,1-.6-.262,1.47,1.47,0,0,1-.167-.811V29.1a7.567,7.567,0,0,1-2.432-.656,5.951,5.951,0,0,1-1.741-1.24,5.071,5.071,0,0,1-1.025-1.55,4.019,4.019,0,0,1-.334-1.574,1.41,1.41,0,0,1,.441-1.025A1.466,1.466,0,0,1,13.07,22.6a1.587,1.587,0,0,1,.906.25,1.285,1.285,0,0,1,.513.7,15.526,15.526,0,0,0,.56,1.49,2.788,2.788,0,0,0,.715.942,3.3,3.3,0,0,0,1.276.656V21.1a15.356,15.356,0,0,1-2.671-.978,4.424,4.424,0,0,1-1.741-1.538A4.589,4.589,0,0,1,11.961,16a4.566,4.566,0,0,1,1.3-3.362,5.853,5.853,0,0,1,3.768-1.526V9.852q0-1,.751-1c.513,0,.763.322.763.978Zm-1.514,8.168V13.441a4.249,4.249,0,0,0-1.562.787,1.871,1.871,0,0,0-.56,1.479,1.836,1.836,0,0,0,.525,1.419,4.787,4.787,0,0,0,1.6.87Zm1.514,3.541v5.223a3.251,3.251,0,0,0,1.86-.966,2.439,2.439,0,0,0,.656-1.693,2.031,2.031,0,0,0-.632-1.6,5.162,5.162,0,0,0-1.872-.954Z" transform="translate(1 0.486)" fill="#333"/>
      <path id="Trazado_110" data-name="Trazado 110" d="M19.16,9.917v.835a7.659,7.659,0,0,1,.787.155,6.432,6.432,0,0,1,1.085.358,4.545,4.545,0,0,1,.954.56,5.038,5.038,0,0,1,.823.775,6.248,6.248,0,0,1,.513.668,4.626,4.626,0,0,1,.644,1.407,2.785,2.785,0,0,1,.083.68,1.9,1.9,0,0,1-.584,1.4,2.137,2.137,0,0,1-.644.441,2.066,2.066,0,0,1-.763.143A1.952,1.952,0,0,1,20.77,16.9a2.287,2.287,0,0,1-.715-1.2h0a2.143,2.143,0,0,0-.548-1.014,2.828,2.828,0,0,0-.346-.3v3.78c.358.107.692.2.966.286.405.131.763.25,1.061.358a5.471,5.471,0,0,1,.918.453,6.536,6.536,0,0,1,.811.608,4.912,4.912,0,0,1,1.264,1.741,4.771,4.771,0,0,1,.334,1.061,6.011,6.011,0,0,1,.107,1.145,5.759,5.759,0,0,1-.7,2.778,5.371,5.371,0,0,1-.87,1.192,6.3,6.3,0,0,1-1.192.942,6.788,6.788,0,0,1-1.467.656,8,8,0,0,1-1.228.262v2.516a5.856,5.856,0,0,1-.036.68,1.671,1.671,0,0,1-.143.548,1.054,1.054,0,0,1-1.073.632,1.382,1.382,0,0,1-.56-.107,1.118,1.118,0,0,1-.465-.382,1.342,1.342,0,0,1-.2-.5,2.843,2.843,0,0,1-.06-.584V29.674c-.322-.048-.632-.119-.93-.191a6.723,6.723,0,0,1-1.216-.453,6.123,6.123,0,0,1-1.025-.608,6.458,6.458,0,0,1-.859-.751,6.6,6.6,0,0,1-.656-.823,4.735,4.735,0,0,1-.465-.87A4.565,4.565,0,0,1,11.1,24.2a1.8,1.8,0,0,1,.155-.751,2.218,2.218,0,0,1,.441-.644,1.9,1.9,0,0,1,.668-.453,1.989,1.989,0,0,1,.8-.155,2.173,2.173,0,0,1,1.192.334,1.885,1.885,0,0,1,.441.429,1.821,1.821,0,0,1,.274.548c.107.334.2.62.286.835a4.284,4.284,0,0,0,.25.6,1.926,1.926,0,0,0,.238.393,2.128,2.128,0,0,0,.358.382,2.749,2.749,0,0,0,.429.3V21.59a15.229,15.229,0,0,1-2.385-.906,5.149,5.149,0,0,1-1.073-.727,5.608,5.608,0,0,1-.859-.978,4.437,4.437,0,0,1-.572-1.3,6.386,6.386,0,0,1-.179-1.562A5.079,5.079,0,0,1,13.02,12.4a5.132,5.132,0,0,1,1.765-1.145,7.578,7.578,0,0,1,1.86-.477V9.964c0-1,.417-1.514,1.264-1.514s1.276.5,1.276,1.49ZM18.147,11.2V9.917q0-.465-.25-.465c-.167,0-.238.167-.238.489v1.729l-.465.036a6.958,6.958,0,0,0-2.027.453,4.228,4.228,0,0,0-1.419.918,4.062,4.062,0,0,0-1.157,3,5.352,5.352,0,0,0,.143,1.3,3.233,3.233,0,0,0,.429.99A3.995,3.995,0,0,0,14.7,19.742a13.425,13.425,0,0,0,2.576.942l.37.107v6.594L17,27.206a4.6,4.6,0,0,1-.811-.31,3.451,3.451,0,0,1-.668-.453,4.048,4.048,0,0,1-.489-.525,3.041,3.041,0,0,1-.358-.6c-.083-.179-.179-.405-.274-.668s-.2-.572-.31-.882h0a.9.9,0,0,0-.131-.262.639.639,0,0,0-.179-.179,1.044,1.044,0,0,0-.262-.119,1.622,1.622,0,0,0-.358-.048,1.134,1.134,0,0,0-.417.072,1.183,1.183,0,0,0-.334.227,1.161,1.161,0,0,0-.238.334.855.855,0,0,0-.072.346,3.487,3.487,0,0,0,.3,1.383,3.685,3.685,0,0,0,.382.7,5.807,5.807,0,0,0,.548.692,4.435,4.435,0,0,0,.7.62,4.888,4.888,0,0,0,.882.513,6.24,6.24,0,0,0,1.037.382,7.736,7.736,0,0,0,1.228.227l.453.048v3.673a1.544,1.544,0,0,0,.036.37.32.32,0,0,0,.06.155l.012.012a.494.494,0,0,0,.167.024c.083,0,.131,0,.131-.012a2.474,2.474,0,0,0,.072-.286,3.532,3.532,0,0,0,.024-.537V28.673l.465-.036a6.791,6.791,0,0,0,1.479-.274,5.3,5.3,0,0,0,1.24-.548,5.37,5.37,0,0,0,.99-.775,4.363,4.363,0,0,0,.7-.966,4.851,4.851,0,0,0,.477-3.243,3.889,3.889,0,0,0-.262-.847,4.229,4.229,0,0,0-.429-.751,3.256,3.256,0,0,0-.584-.632v-.012a4.342,4.342,0,0,0-.656-.5,4.753,4.753,0,0,0-.739-.37c-.286-.107-.62-.227-1-.346-.405-.131-.847-.25-1.312-.382l-.37-.107V12.838l.668.215a3.333,3.333,0,0,1,1.431.87,3.256,3.256,0,0,1,.8,1.467,1.319,1.319,0,0,0,.382.692.968.968,0,0,0,.644.2.947.947,0,0,0,.382-.072,1.038,1.038,0,0,0,.31-.215.922.922,0,0,0,.286-.668,1.956,1.956,0,0,0-.06-.441,2.832,2.832,0,0,0-.191-.525,3.7,3.7,0,0,0-.31-.56,6.349,6.349,0,0,0-.429-.56l-.012-.012a4.011,4.011,0,0,0-.656-.62,3.322,3.322,0,0,0-.751-.429,5.177,5.177,0,0,0-.918-.3,7.355,7.355,0,0,0-1.121-.179l-.453-.048V11.2Zm-1.514,6.117V14.245l-.155.072a2.538,2.538,0,0,0-.56.37,1.063,1.063,0,0,0-.274.405,1.936,1.936,0,0,0-.107.68,2.115,2.115,0,0,0,.1.656.917.917,0,0,0,.262.393,3.25,3.25,0,0,0,.56.393l.179.1Zm1.014-3.792v5.294l-.68-.25a8.072,8.072,0,0,1-1-.441A3.9,3.9,0,0,1,15.2,17.6a1.949,1.949,0,0,1-.525-.8,2.94,2.94,0,0,1-.167-1,2.78,2.78,0,0,1,.179-1.037,1.949,1.949,0,0,1,.56-.811,3.8,3.8,0,0,1,.775-.513A5.767,5.767,0,0,1,17,13.053l.656-.191v.68Zm1.514,8.824v3.828q.179-.072.322-.143a2.417,2.417,0,0,0,.644-.489,1.99,1.99,0,0,0,.393-.632,2.024,2.024,0,0,0,.131-.727,1.9,1.9,0,0,0-.119-.727,1.184,1.184,0,0,0-.346-.489,3.366,3.366,0,0,0-.68-.453c-.107-.06-.227-.107-.346-.167Zm-1.014,4.5V20.934l.656.215a9.171,9.171,0,0,1,1.169.465,4.021,4.021,0,0,1,.894.6,2.218,2.218,0,0,1,.608.87,3.069,3.069,0,0,1,0,2.194,3.11,3.11,0,0,1-.584.942,3.336,3.336,0,0,1-.942.715,4.471,4.471,0,0,1-1.2.405l-.608.119v-.62Z" transform="translate(0.919 0.409)" fill="#333"/>
      <path id="Trazado_111" data-name="Trazado 111" d="M18.569,9.84v1.288a7.324,7.324,0,0,1,2.182.525,4.259,4.259,0,0,1,1.586,1.192A4.925,4.925,0,0,1,23.16,14.1a2.935,2.935,0,0,1,.286,1.18,1.406,1.406,0,0,1-.429,1.025,1.44,1.44,0,0,1-1.049.429,1.481,1.481,0,0,1-1.514-1.264,2.7,2.7,0,0,0-1.9-1.979v4.96c.99.274,1.765.513,2.349.739a4.9,4.9,0,0,1,1.562.966A4.463,4.463,0,0,1,23.6,21.716a4.988,4.988,0,0,1,.393,1.991,5.345,5.345,0,0,1-.632,2.54,5.1,5.1,0,0,1-1.872,1.932,6.684,6.684,0,0,1-2.945.894v2.969a3.04,3.04,0,0,1-.131,1.025.587.587,0,0,1-.6.322.638.638,0,0,1-.6-.262,1.459,1.459,0,0,1-.179-.811V29.1a7.567,7.567,0,0,1-2.432-.656,5.951,5.951,0,0,1-1.741-1.24,5.071,5.071,0,0,1-1.025-1.55,4.019,4.019,0,0,1-.334-1.574,1.41,1.41,0,0,1,.441-1.025A1.466,1.466,0,0,1,13.06,22.6a1.587,1.587,0,0,1,.906.25,1.285,1.285,0,0,1,.513.7,15.525,15.525,0,0,0,.56,1.49,2.788,2.788,0,0,0,.715.942,3.3,3.3,0,0,0,1.276.656V21.1a15.356,15.356,0,0,1-2.671-.978,4.424,4.424,0,0,1-1.741-1.538A4.589,4.589,0,0,1,11.951,16a4.566,4.566,0,0,1,1.3-3.362,5.853,5.853,0,0,1,3.768-1.526V9.852q0-1,.751-1c.513,0,.763.322.763.978Zm-1.514,8.168V13.441a4.249,4.249,0,0,0-1.562.787,1.871,1.871,0,0,0-.56,1.479,1.836,1.836,0,0,0,.525,1.419,4.787,4.787,0,0,0,1.6.87Zm1.514,3.541v5.223a3.251,3.251,0,0,0,1.86-.966,2.439,2.439,0,0,0,.656-1.693,2.031,2.031,0,0,0-.632-1.6,5.162,5.162,0,0,0-1.872-.954Z" transform="translate(0.998 0.486)" fill="#333"/>
    </g>
  </g>
</svg>
