<svg xmlns="http://www.w3.org/2000/svg" width="57.426" height="34.943" viewBox="0 0 57.426 34.943">
  <g id="covers-icon" transform="translate(-3528.287 -7322.035)">
    <path id="Trazado_112" data-name="Trazado 112" d="M39.232,29.9H18.185l1.473-7.577c3.105,0,4.841-4.872,4.841-8S21.29,6.537,18.185,6.537L19.658,0H72.066V29.9Z" transform="translate(3512.287 7324.035)" fill="#fff"/>
    <path id="Trazado_113" data-name="Trazado 113" d="M53.292,30.81V4.113H4.113V8.428A9.816,9.816,0,0,1,9.739,17.3a9.794,9.794,0,0,1-5.626,8.872V30.79H53.292Zm4.134,4.134H0V22.986A5.65,5.65,0,0,0,5.626,17.32,5.65,5.65,0,0,0,0,11.655V0H57.426Z" transform="translate(3528.287 7322.035)" fill="#333"/>
    <path id="Trazado_114" data-name="Trazado 114" d="M16.55,2.656a1.976,1.976,0,1,1,3.952,0V6.527a1.976,1.976,0,0,1-3.952,0Z" transform="translate(3545.108 7322.726)" fill="#333"/>
    <path id="Trazado_115" data-name="Trazado 115" d="M16.55,14.856a1.976,1.976,0,1,1,3.952,0v4.416a1.976,1.976,0,1,1-3.952,0V14.856Z" transform="translate(3545.108 7335.125)" fill="#333"/>
    <path id="Trazado_116" data-name="Trazado 116" d="M9.606,9.4a1.976,1.976,0,1,1,0-3.952h7.5a1.976,1.976,0,0,1,0,3.952Z" transform="translate(3536.042 7327.574)" fill="#333"/>
    <path id="Trazado_117" data-name="Trazado 117" d="M9.606,13.252a1.976,1.976,0,1,1,0-3.952h7.5a1.976,1.976,0,1,1,0,3.952Z" transform="translate(3536.042 7331.487)" fill="#333"/>
    <path id="Trazado_118" data-name="Trazado 118" d="M16.55,8.006a1.976,1.976,0,1,1,3.952,0v5.626a1.976,1.976,0,1,1-3.952,0V8.006Z" transform="translate(3545.108 7328.163)" fill="#333"/>
  </g>
</svg>
