<svg xmlns="http://www.w3.org/2000/svg" width="42.158" height="53.515" viewBox="0 0 42.158 53.515">
  <g id="modificacion-icon" transform="translate(-0.01 -0.01)">
    <g id="_2943388717984" transform="translate(0.01 0.01)">
      <path id="Trazado_92" data-name="Trazado 92" d="M12.237,1.65H39.1a3.22,3.22,0,0,1,3.217,3.217V41.547A3.22,3.22,0,0,1,39.1,44.764H12.237A3.22,3.22,0,0,1,9.02,41.547V4.867A3.22,3.22,0,0,1,12.237,1.65Z" transform="translate(-1.529 -0.287)" fill="#fff"/>
      <path id="Trazado_93" data-name="Trazado 93" d="M38.82,43.124a1.847,1.847,0,0,0,1.846-1.846V4.6A1.847,1.847,0,0,0,38.82,2.753H11.959A1.847,1.847,0,0,0,10.113,4.6V41.279a1.847,1.847,0,0,0,1.846,1.846Zm0,2.743H11.959A4.588,4.588,0,0,1,7.37,41.279V4.6A4.588,4.588,0,0,1,11.959.01H38.82A4.588,4.588,0,0,1,43.409,4.6V41.279A4.588,4.588,0,0,1,38.82,45.868Z" transform="translate(-1.251 -0.01)" fill="#333"/>
      <path id="Trazado_94" data-name="Trazado 94" d="M4.867,10.86H31.728a3.22,3.22,0,0,1,3.217,3.217V50.757a3.22,3.22,0,0,1-3.217,3.217H4.867A3.22,3.22,0,0,1,1.65,50.757V14.077A3.22,3.22,0,0,1,4.867,10.86Z" transform="translate(-0.287 -1.84)" fill="#fff"/>
      <path id="Trazado_95" data-name="Trazado 95" d="M31.46,52.334a1.847,1.847,0,0,0,1.846-1.846V13.809a1.847,1.847,0,0,0-1.846-1.846H4.6a1.847,1.847,0,0,0-1.846,1.846V50.489A1.847,1.847,0,0,0,4.6,52.334Zm0,2.743H4.6A4.588,4.588,0,0,1,.01,50.489V13.809A4.588,4.588,0,0,1,4.6,9.22H31.46a4.588,4.588,0,0,1,4.589,4.589V50.489A4.588,4.588,0,0,1,31.46,55.078Z" transform="translate(-0.01 -1.563)" fill="#333"/>
      <path id="Trazado_96" data-name="Trazado 96" d="M7.36,33.72H30.9v2.195H7.36Z" transform="translate(-1.25 -5.695)" fill="#333"/>
      <path id="Trazado_97" data-name="Trazado 97" d="M7.36,39.25H30.9v2.195H7.36Z" transform="translate(-1.25 -6.628)" fill="#333"/>
      <path id="Trazado_98" data-name="Trazado 98" d="M7.36,44.77H30.9v2.195H7.36Z" transform="translate(-1.25 -7.558)" fill="#333"/>
      <path id="Trazado_99" data-name="Trazado 99" d="M7.36,50.29H20.836v2.195H7.36Z" transform="translate(-1.25 -8.489)" fill="#333"/>
      <path id="Trazado_100" data-name="Trazado 100" d="M7.53,25.08V19.094a.912.912,0,0,1,.266-.648.884.884,0,0,1,.648-.266H29.736a.912.912,0,0,1,.648.266.884.884,0,0,1,.266.648V25.08a.912.912,0,0,1-.266.648.884.884,0,0,1-.648.266H8.444a.912.912,0,0,1-.648-.266.884.884,0,0,1-.266-.648Z" transform="translate(-1.278 -3.074)" fill="#ebc74e"/>
      <path id="Trazado_101" data-name="Trazado 101" d="M7.53,25.762V18.4a.2.2,0,0,1,.224-.224H30.417a.2.2,0,0,1,.224.224v7.358a.2.2,0,0,1-.224.224H7.754a.2.2,0,0,1-.224-.224Z" transform="translate(-1.278 -3.074)" fill="#fdbd00"/>
      <path id="Trazado_102" data-name="Trazado 102" d="M6.21,25.539V18.182A1.171,1.171,0,0,1,7.54,16.86H30.2a1.272,1.272,0,0,1,.948.382,1.291,1.291,0,0,1,.382.948v7.358a1.177,1.177,0,0,1-1.33,1.33H7.54a1.177,1.177,0,0,1-1.33-1.33ZM8.4,19.055v5.62H29.33v-5.62Z" transform="translate(-1.056 -2.852)" fill="#333"/>
    </g>
  </g>
</svg>
