<svg xmlns="http://www.w3.org/2000/svg" width="39.773" height="40.643" viewBox="0 0 39.773 40.643">
  <path id="settings-icon" d="M33.2,21.475l4.082,3.175a.96.96,0,0,1,.272,1.27l-3.9,6.713A.793.793,0,0,1,32.477,33l-4.808-1.9A18.3,18.3,0,0,1,24.4,33l-.726,5.08a.866.866,0,0,1-1,.816H14.97a.933.933,0,0,1-1-.816L13.246,33a14.879,14.879,0,0,1-3.265-1.9L5.173,33a.883.883,0,0,1-1.179-.362L.094,25.92a.96.96,0,0,1,.272-1.27l4.082-3.175q-.09-1.088-.09-1.9t.09-1.9L.366,14.491a.96.96,0,0,1-.272-1.27l3.9-6.713a.818.818,0,0,1,1.179-.362L9.98,8.05a18.3,18.3,0,0,1,3.265-1.9l.726-5.08a.933.933,0,0,1,1-.816h7.71a.867.867,0,0,1,1,.816l.726,5.08a14.879,14.879,0,0,1,3.265,1.9l4.808-1.9a.883.883,0,0,1,1.179.362l3.9,6.713a.96.96,0,0,1-.272,1.27L33.2,17.666a11.756,11.756,0,0,1,.182,1.9A11.756,11.756,0,0,1,33.2,21.475Zm-14.377,4.9a6.5,6.5,0,0,0,4.762-2,6.553,6.553,0,0,0,2-4.808,6.553,6.553,0,0,0-2-4.808,6.681,6.681,0,0,0-9.524,0,6.553,6.553,0,0,0-2,4.808,6.553,6.553,0,0,0,2,4.808A6.5,6.5,0,0,0,18.825,26.374Z" transform="translate(1.062 0.751)" fill="#fff" stroke="#333" stroke-width="2"/>
</svg>
