<svg xmlns="http://www.w3.org/2000/svg" width="43.375" height="43.352" viewBox="0 0 43.375 43.352">
  <g id="staff-icon" transform="translate(0.01 0.01)">
    <g id="_2943469916000" transform="translate(-0.01 -0.01)">
      <path id="Trazado_131" data-name="Trazado 131" d="M1.37,37.365V6.639a5.128,5.128,0,0,1,.1-1.027,5.647,5.647,0,0,1,.3-.989,5.194,5.194,0,0,1,.483-.912,5.914,5.914,0,0,1,.652-.8,5.383,5.383,0,0,1,.8-.652,4.937,4.937,0,0,1,.912-.483,5.647,5.647,0,0,1,.989-.3,5.128,5.128,0,0,1,1.027-.1H37.355a5.128,5.128,0,0,1,1.027.1,5.647,5.647,0,0,1,.989.3,5.194,5.194,0,0,1,.912.483,5.147,5.147,0,0,1,1.449,1.449,4.937,4.937,0,0,1,.483.912,5.647,5.647,0,0,1,.3.989,5.129,5.129,0,0,1,.1,1.027V37.365a5.129,5.129,0,0,1-.1,1.027,5.647,5.647,0,0,1-.3.989,5.194,5.194,0,0,1-.483.912,5.914,5.914,0,0,1-.652.8,5.383,5.383,0,0,1-.8.652,4.937,4.937,0,0,1-.912.483,5.646,5.646,0,0,1-.989.3,5.128,5.128,0,0,1-1.027.1H6.629a5.128,5.128,0,0,1-1.027-.1,5.646,5.646,0,0,1-.989-.3,5.194,5.194,0,0,1-.912-.483,5.147,5.147,0,0,1-1.449-1.449,4.937,4.937,0,0,1-.483-.912,5.646,5.646,0,0,1-.3-.989,5.128,5.128,0,0,1-.1-1.027Z" transform="translate(-0.312 -0.314)" fill="#ebc74e"/>
      <path id="Trazado_132" data-name="Trazado 132" d="M1.37,38.674V5.318a3.663,3.663,0,0,1,.077-.767,4.349,4.349,0,0,1,.222-.744,3.907,3.907,0,0,1,.368-.682A3.942,3.942,0,0,1,3.126,2.037a3.907,3.907,0,0,1,.682-.368,3.473,3.473,0,0,1,.744-.222,3.715,3.715,0,0,1,.767-.077H38.674a3.663,3.663,0,0,1,.767.077,4.349,4.349,0,0,1,.744.222,3.906,3.906,0,0,1,.682.368,3.942,3.942,0,0,1,1.089,1.089,3.907,3.907,0,0,1,.368.682,3.473,3.473,0,0,1,.222.744,3.715,3.715,0,0,1,.077.767V38.674a3.663,3.663,0,0,1-.077.767,4.348,4.348,0,0,1-.222.744,3.906,3.906,0,0,1-.368.682,3.941,3.941,0,0,1-1.089,1.089,3.906,3.906,0,0,1-.682.368,3.472,3.472,0,0,1-.744.222,3.715,3.715,0,0,1-.767.077H5.318a3.663,3.663,0,0,1-.767-.077,4.348,4.348,0,0,1-.744-.222,3.907,3.907,0,0,1-.682-.368,3.942,3.942,0,0,1-1.089-1.089,3.906,3.906,0,0,1-.368-.682,3.473,3.473,0,0,1-.222-.744,3.715,3.715,0,0,1-.077-.767Z" transform="translate(-0.312 -0.312)" fill="#fff"/>
      <path id="Trazado_133" data-name="Trazado 133" d="M0,38.352V5a3.879,3.879,0,0,1,.031-.483V4.505A4.062,4.062,0,0,1,.1,4.022V4.015A3.84,3.84,0,0,1,.22,3.547l.008-.008c.046-.161.107-.314.161-.46s.13-.3.207-.445a3.835,3.835,0,0,1,.253-.422,4.319,4.319,0,0,1,.621-.759c.1-.1.222-.207.368-.33A4.3,4.3,0,0,1,2.229.833a4.691,4.691,0,0,1,.866-.46,4.055,4.055,0,0,1,.46-.161V.2A4.775,4.775,0,0,1,4.03.09,3.647,3.647,0,0,1,4.513.021C4.7.005,4.866-.01,5-.01H38.359a3.994,3.994,0,0,1,.491.031,3.647,3.647,0,0,1,.483.069c.153.031.307.069.468.115l.008.008c.161.046.314.107.46.161a5.2,5.2,0,0,1,.866.46,4.32,4.32,0,0,1,.759.621,5.133,5.133,0,0,1,.621.759,3.836,3.836,0,0,1,.253.422c.077.146.146.3.215.445a4.054,4.054,0,0,1,.161.46h.008a4.777,4.777,0,0,1,.115.475,3.844,3.844,0,0,1,.069.483c.015.184.031.353.031.491V38.344a3.994,3.994,0,0,1-.031.491,3.647,3.647,0,0,1-.069.483,4.777,4.777,0,0,1-.115.475h-.008c-.046.161-.107.314-.161.46v.008a5.839,5.839,0,0,1-.468.859,4.319,4.319,0,0,1-.621.759,5.132,5.132,0,0,1-.759.621,4.691,4.691,0,0,1-.866.46c-.161.069-.314.123-.46.169V43.12a4.388,4.388,0,0,1-.475.123,3.844,3.844,0,0,1-.483.069c-.184.015-.345.031-.491.031H5a3.993,3.993,0,0,1-.491-.031,3.647,3.647,0,0,1-.483-.069,3.839,3.839,0,0,1-.468-.123l-.008-.008c-.161-.046-.314-.107-.46-.161a5.2,5.2,0,0,1-.866-.46,4.7,4.7,0,0,1-.391-.291,4.206,4.206,0,0,1-.368-.33,5.132,5.132,0,0,1-.621-.759A3.835,3.835,0,0,1,.6,40.69c-.077-.146-.153-.3-.215-.445a4.054,4.054,0,0,1-.161-.46l-.008-.008C.166,39.616.12,39.463.09,39.31V39.3a4.062,4.062,0,0,1-.069-.483v-.008c-.015-.184-.031-.345-.031-.483ZM2.106,5V38.352c0,.123,0,.215.008.284s.023.169.046.284c.023.1.046.192.069.284h0c.023.084.061.169.1.268a1.94,1.94,0,0,0,.123.253,1.983,1.983,0,0,0,.146.238,2.725,2.725,0,0,0,.36.437,2.014,2.014,0,0,0,.207.192,1.78,1.78,0,0,0,.23.169,2.823,2.823,0,0,0,.5.268c.092.038.184.069.268.1h0c.084.023.184.046.284.069.115.023.207.038.284.046s.169.008.284.008H38.367c.115,0,.215,0,.284-.008s.169-.023.284-.046a1.772,1.772,0,0,0,.276-.069v-.008c.1-.031.192-.061.268-.092h.008a2.61,2.61,0,0,0,.5-.268,2.725,2.725,0,0,0,.437-.36,3.015,3.015,0,0,0,.36-.437c.054-.084.107-.161.146-.238s.077-.153.123-.261c.038-.092.069-.184.1-.268h-.008a1.816,1.816,0,0,0,.069-.276c.023-.115.038-.207.046-.284s.008-.169.008-.284V5c0-.115,0-.215-.008-.284s-.023-.169-.046-.284a1.816,1.816,0,0,0-.069-.276h.008a2.333,2.333,0,0,0-.1-.268,1.94,1.94,0,0,0-.123-.253c-.038-.077-.092-.161-.146-.245a2.725,2.725,0,0,0-.36-.437,3.015,3.015,0,0,0-.437-.36,3.122,3.122,0,0,0-.5-.268c-.092-.038-.184-.069-.268-.1h0c-.084-.023-.176-.046-.284-.069s-.207-.038-.284-.046-.169-.008-.284-.008H5.011c-.115,0-.215,0-.284.008s-.169.023-.276.046a1.816,1.816,0,0,0-.276.069V2.213a2.333,2.333,0,0,0-.268.1,2.61,2.61,0,0,0-.5.268c-.084.054-.161.115-.23.169-.054.046-.123.107-.207.192a3.015,3.015,0,0,0-.36.437,2.06,2.06,0,0,0-.146.245,2.574,2.574,0,0,0-.123.253c-.038.092-.069.184-.1.268h0c-.023.084-.046.184-.069.284a2.674,2.674,0,0,0-.046.284c-.008.069-.008.169-.008.284Z" transform="translate(0.01 0.01)" fill="#333"/>
      <path id="Trazado_134" data-name="Trazado 134" d="M10.328,43.116A5.562,5.562,0,0,1,13.9,37.7a3.48,3.48,0,1,1,3.511,0,5.566,5.566,0,0,1,3.572,5.42c0,1.633-2.568,2.622-5.236,2.653h-.115c-2.63,0-5.313-.981-5.313-2.653Z" transform="translate(-2.401 -7.276)" fill="#333"/>
      <path id="Trazado_135" data-name="Trazado 135" d="M32.288,43.116A5.562,5.562,0,0,1,35.86,37.7a3.48,3.48,0,1,1,3.511,0,5.566,5.566,0,0,1,3.572,5.42c0,1.633-2.568,2.622-5.236,2.653h-.115c-2.63,0-5.313-.981-5.313-2.653Z" transform="translate(-7.526 -7.276)" fill="#333"/>
      <path id="Trazado_136" data-name="Trazado 136" d="M10.328,19.256a5.562,5.562,0,0,1,3.572-5.42,3.48,3.48,0,1,1,3.511,0,5.566,5.566,0,0,1,3.572,5.42c0,1.633-2.568,2.622-5.236,2.653h-.115c-2.63,0-5.313-.981-5.313-2.652Z" transform="translate(-2.401 -1.708)" fill="#333"/>
      <path id="Trazado_137" data-name="Trazado 137" d="M32.288,19.256a5.562,5.562,0,0,1,3.572-5.42,3.48,3.48,0,1,1,3.511,0,5.566,5.566,0,0,1,3.572,5.42c0,1.633-2.568,2.622-5.236,2.653h-.115c-2.63,0-5.313-.981-5.313-2.652Z" transform="translate(-7.526 -1.708)" fill="#333"/>
    </g>
  </g>
</svg>
