<svg xmlns="http://www.w3.org/2000/svg" width="1100.92" height="1102.848" viewBox="0 0 1100.92 1102.848">
  <path id="Trazado_139" data-name="Trazado 139" d="M264.732,454.36c124.156,0,154.28,30.124,154.28,66.941,0,113.582-14.654,128.235-32.565,128.235-137.906,0-161.515-23.609-161.515-52.466,0-124.8,17.911-142.71,39.8-142.71ZM592.876,182.248H509.564A53,53,0,0,1,456.718,129.4c0-78.583,16.707-95.29,37.131-95.29h42.008a87.654,87.654,0,0,1,87.4,87.4c0,47.07-13.668,60.738-30.377,60.738Zm114.912,19.605a57.859,57.859,0,0,1-39.739-54.772c0-18.681-1.119-42.926,28.124-31.1,30.464,12.321,71.428,54.887,63.148,73.707C751.144,208.272,724.263,207.27,707.788,201.854Zm36.8,216.011a51.7,51.7,0,0,1-51.548-51.548V286.006a37.752,37.752,0,0,1,37.643-37.643h17.561c51.841,0,94.253,42.412,94.253,94.253v30.237Zm-220.932,0a67.138,67.138,0,0,1-66.941-66.941V255.253a32.66,32.66,0,0,1,32.565-32.565H598.33A52.619,52.619,0,0,1,650.8,275.154V378.063Zm69.22,272.112H509.564c-29.065,0-52.846,23.78-52.846,111a37.238,37.238,0,0,0,37.131,37.131h42.008a87.653,87.653,0,0,0,87.4-87.4V720.354a30.464,30.464,0,0,0-30.377-30.377Zm114.912-19.605a57.858,57.858,0,0,0-39.739,54.772c0,18.681-1.119,42.926,28.124,31.1,30.464-12.321,71.428-54.888,63.148-73.707-8.179-18.589-35.059-17.587-51.534-12.171Zm89.7-216.011h-52.9c-28.352,0-51.548,23.2-51.548,131.859a37.752,37.752,0,0,0,37.643,37.643h17.561c51.841,0,94.253-42.412,94.253-94.253V499.372a45.14,45.14,0,0,0-45.01-45.01ZM611,454.36H523.657A67.138,67.138,0,0,0,456.716,521.3v95.671a32.66,32.66,0,0,0,32.565,32.565H598.33A52.619,52.619,0,0,0,650.8,597.07V494.162a39.919,39.919,0,0,0-39.8-39.8ZM282.852,182.248h83.312c29.065,0,52.846-23.78,52.846-111a37.238,37.238,0,0,0-37.131-37.131H339.87a87.654,87.654,0,0,0-87.4,87.4v30.361a30.464,30.464,0,0,0,30.377,30.377ZM167.939,201.854a57.858,57.858,0,0,0,39.739-54.772c0-18.681,1.119-42.926-28.124-31.1-30.464,12.321-71.428,54.887-63.148,73.707C124.584,208.272,151.465,207.27,167.939,201.854Zm-89.7,216.011h52.9a51.7,51.7,0,0,0,51.548-51.548V286.006a37.752,37.752,0,0,0-37.643-37.643H127.482c-51.841,0-94.253,42.412-94.253,94.253v30.237a45.14,45.14,0,0,0,45.01,45.01Zm186.493,0h87.339c36.817,0,66.941-30.124,66.941-162.611a32.66,32.66,0,0,0-32.565-32.565H277.4a52.619,52.619,0,0,0-52.466,52.466V378.063a39.919,39.919,0,0,0,39.8,39.8Zm18.12,272.112h83.312a53,53,0,0,1,52.846,52.846v58.159a37.238,37.238,0,0,1-37.131,37.131H339.87a87.654,87.654,0,0,1-87.4-87.4V720.354a30.464,30.464,0,0,1,30.377-30.377ZM167.939,670.371a57.858,57.858,0,0,1,39.739,54.772c0,18.681,1.119,42.926-28.124,31.1-30.464-12.321-71.428-54.888-63.148-73.707,8.179-18.589,35.059-17.587,51.534-12.171ZM78.239,454.36h52.9a51.7,51.7,0,0,1,51.548,51.548v80.311a37.752,37.752,0,0,1-37.643,37.643H127.482c-51.841,0-94.253-42.412-94.253-94.253V499.372a45.14,45.14,0,0,1,45.01-45.01ZM758.022,115.953C676.09,34.023,839.952,197.885,758.022,115.953Z" transform="translate(1147.076 390.279) rotate(120)" fill="#404040" opacity="0.07"/>
</svg>
