<svg xmlns="http://www.w3.org/2000/svg" width="310" height="70.111" viewBox="0 0 310 70.111">
  <g id="logo_junto" transform="translate(-4157.915 -165.826)">
    <path id="Trazado_3" data-name="Trazado 3" d="M35.056,0h0a35.056,35.056,0,0,1,0,70.111h0A35.056,35.056,0,0,1,35.056,0h0ZM23.009,36.325h6.077a4.671,4.671,0,0,1,4.658,4.658V47.64a2.272,2.272,0,0,1-2.266,2.266H23.891a3.661,3.661,0,0,1-3.65-3.65v-7.16a2.778,2.778,0,0,1,2.769-2.769ZM45.841,17.392h-5.8a3.688,3.688,0,0,1-3.677-3.677V9.669a2.591,2.591,0,0,1,2.584-2.584h2.923a6.1,6.1,0,0,1,6.081,6.081v2.112a2.12,2.12,0,0,1-2.114,2.114Zm8,1.364a4.026,4.026,0,0,1-2.765-3.811c0-1.3-.078-2.987,1.957-2.164,2.12.857,4.97,3.819,4.394,5.128C56.853,19.2,54.983,19.133,53.837,18.756Zm6.241,15.03H56.4A3.6,3.6,0,0,1,52.811,30.2V24.612a2.627,2.627,0,0,1,2.619-2.619h1.222A6.577,6.577,0,0,1,63.21,28.55v2.1a3.141,3.141,0,0,1-3.132,3.132Zm-12.976,0H41.025a4.671,4.671,0,0,1-4.658-4.658V22.472a2.272,2.272,0,0,1,2.266-2.266h7.588a3.661,3.661,0,0,1,3.65,3.65v7.16A2.778,2.778,0,0,1,47.1,33.786ZM45.841,52.719h-5.8A3.688,3.688,0,0,0,36.368,56.4v4.047a2.591,2.591,0,0,0,2.584,2.584h2.923a6.1,6.1,0,0,0,6.081-6.081V54.833a2.12,2.12,0,0,0-2.114-2.114Zm8-1.364a4.026,4.026,0,0,0-2.765,3.811c0,1.3-.078,2.987,1.957,2.164,2.12-.857,4.97-3.819,4.394-5.128-.569-1.293-2.439-1.224-3.586-.847Zm6.241-15.03H56.4a3.6,3.6,0,0,0-3.587,3.587V45.5a2.627,2.627,0,0,0,2.619,2.619h1.222a6.577,6.577,0,0,0,6.558-6.558v-2.1a3.141,3.141,0,0,0-3.132-3.132Zm-12.976,0H41.025a4.671,4.671,0,0,0-4.658,4.658V47.64a2.272,2.272,0,0,0,2.266,2.266h7.588a3.661,3.661,0,0,0,3.65-3.65v-7.16A2.778,2.778,0,0,0,47.1,36.325ZM24.27,17.392h5.8a3.688,3.688,0,0,0,3.677-3.677V9.669A2.591,2.591,0,0,0,31.16,7.085H28.237a6.1,6.1,0,0,0-6.081,6.081v2.112a2.12,2.12,0,0,0,2.114,2.114Zm-8,1.364a4.026,4.026,0,0,0,2.765-3.811c0-1.3.078-2.987-1.957-2.164-2.12.857-4.97,3.819-4.394,5.128C13.258,19.2,15.128,19.133,16.275,18.756Zm-6.241,15.03h3.681A3.6,3.6,0,0,0,17.3,30.2V24.612a2.627,2.627,0,0,0-2.619-2.619H13.46A6.577,6.577,0,0,0,6.9,28.55v2.1a3.141,3.141,0,0,0,3.132,3.132Zm12.976,0h6.077a4.671,4.671,0,0,0,4.658-4.658V22.472a2.272,2.272,0,0,0-2.266-2.266H23.891a3.661,3.661,0,0,0-3.65,3.65v7.16a2.778,2.778,0,0,0,2.769,2.769ZM24.27,52.719h5.8A3.688,3.688,0,0,1,33.744,56.4v4.047a2.591,2.591,0,0,1-2.584,2.584H28.237a6.1,6.1,0,0,1-6.081-6.081V54.833a2.12,2.12,0,0,1,2.114-2.114Zm-8-1.364a4.026,4.026,0,0,1,2.765,3.811c0,1.3.078,2.987-1.957,2.164-2.12-.857-4.97-3.819-4.394-5.128.569-1.293,2.439-1.224,3.586-.847Zm-6.241-15.03h3.681A3.6,3.6,0,0,1,17.3,39.912V45.5a2.627,2.627,0,0,1-2.619,2.619H13.46A6.577,6.577,0,0,1,6.9,41.561v-2.1a3.141,3.141,0,0,1,3.132-3.132ZM35.056,3.553a31.5,31.5,0,1,0,22.276,9.227A31.406,31.406,0,0,0,35.056,3.553Z" transform="translate(4157.915 165.826)" fill="#fff"/>
    <text id="PARTIAF" transform="translate(4240.915 215)" fill="#fff" font-size="44" font-family="NasalizationRg-Regular, Nasalization" letter-spacing="0.125em"><tspan x="0" y="0">PARTIAF</tspan></text>
  </g>
</svg>
