<svg xmlns="http://www.w3.org/2000/svg" width="32.341" height="37.954" viewBox="0 0 32.341 37.954">
  <path id="settings" d="M16.17,38.2A3.645,3.645,0,0,1,13.5,37.09a3.594,3.594,0,0,1-1.114-2.628h7.573a3.592,3.592,0,0,1-1.114,2.628A3.651,3.651,0,0,1,16.169,38.2ZM28.51,26.8l3.831,3.831V32.5H0V30.63L3.831,26.8V16.375A11.985,11.985,0,0,1,6.5,8.669a12.047,12.047,0,0,1,6.772-4.321V3.1a2.7,2.7,0,0,1,.847-2.049,2.872,2.872,0,0,1,2.05-.8,2.72,2.72,0,0,1,2,.8,2.775,2.775,0,0,1,.8,2.049V4.349A12.07,12.07,0,0,1,25.838,8.67a11.985,11.985,0,0,1,2.673,7.706V26.8Z" transform="translate(0 -0.25)" fill="#333"/>
</svg>
