<svg id="Grupo_1" data-name="Grupo 1" xmlns="http://www.w3.org/2000/svg" width="148.76" height="148.76" viewBox="0 0 148.76 148.76">
  <path id="user-avatar-filled" d="M76.63,2.25a74.38,74.38,0,1,0,74.38,74.38A74.38,74.38,0,0,0,76.63,2.25Zm0,26.564A23.854,23.854,0,1,1,59.706,35.8,23.91,23.91,0,0,1,76.63,28.814Zm42.5,95.207a63.381,63.381,0,0,1-85.006,0v-3.079A27.627,27.627,0,0,1,60.692,92.569H92.569a27.679,27.679,0,0,1,26.564,28.213Z" transform="translate(-2.25 -2.25)" fill="#fdbd00"/>
</svg>
